<?xml version="1.0" standalone="yes"?><svg version="1.1" xmlns = 'http://www.w3.org/2000/svg'><defs><font id='web' horiz-adv-x="1000">
<font-face font-family="web" descent="-301" cap-height="1628" units-per-em="2048" bbox="-195,-432,2019,1887" x-height="1126" ascent="1645" />
<missing-glyph horiz-adv-x="397" d="" /><glyph horiz-adv-x="1280" d="M 476 -32 C 342 -32 239 5 166 80 C 92 154 56 248 56 360 C 56 506 108 636 214 750 C 319 863 449 920 604 920 C 668 920 734 908 802 886 C 870 863 924 840 964 816 C 972 872 976 928 976 984 C 976 1109 953 1207 908 1278 C 862 1348 800 1384 720 1384 C 634 1384 567 1374 518 1356 C 468 1337 418 1312 368 1280 L 324 1444 C 374 1473 430 1498 492 1518 C 553 1538 629 1548 720 1548 C 877 1548 992 1496 1064 1394 C 1136 1291 1172 1149 1172 968 C 1172 690 1104 454 968 260 C 832 65 668 -32 476 -32 Z M 488 128 C 716 128 868 313 944 684 C 922 705 882 726 824 748 C 765 769 706 780 648 780 C 520 780 424 738 360 654 C 296 570 264 476 264 372 C 264 300 282 241 318 196 C 354 150 410 128 488 128 Z" unicode="∂" />
<glyph horiz-adv-x="1536" d="M 76 0 L 652 1536 L 884 1536 L 1456 0 L 76 0 Z M 352 148 L 1164 148 L 752 1256 L 352 148 Z" unicode="∆" />
<glyph horiz-adv-x="1018" d="M 954 498 C 954 373 938 274 908 202 C 878 129 833 75 775 39 C 717 3 642 -14 551 -14 C 443 -14 354 14 284 70 C 214 126 172 203 158 299 C 151 336 147 386 145 448 C 143 510 141 579 139 653 L 25 653 L 25 770 L 135 770 L 135 850 L 25 850 L 25 967 L 139 967 C 144 1166 152 1295 164 1354 C 175 1413 197 1465 231 1509 C 265 1553 308 1586 362 1608 C 416 1630 479 1642 551 1642 C 627 1642 691 1629 745 1604 C 798 1579 842 1540 876 1488 C 910 1435 931 1370 941 1294 C 951 1218 956 1154 956 1104 L 782 1104 C 782 1216 774 1296 758 1346 C 742 1395 717 1431 684 1454 C 650 1477 607 1489 553 1489 C 429 1489 358 1432 338 1319 C 327 1257 320 1200 318 1146 C 316 1092 315 1033 315 967 L 717 967 L 717 850 L 313 850 L 313 770 L 717 770 L 717 653 L 315 653 C 318 479 321 380 324 356 C 331 286 354 232 393 193 C 431 154 485 135 553 135 C 602 135 643 145 677 167 C 710 188 735 219 752 260 C 769 300 778 358 779 434 L 778 498 L 954 498 Z" unicode="€" />
<glyph horiz-adv-x="1536" d="M 332 0 L 332 1348 L 80 1348 L 80 1524 L 1456 1524 L 1456 1348 L 1212 1348 L 1212 0 L 1004 0 L 1004 1356 L 540 1356 L 540 0 L 332 0 Z" unicode="∏" />
<glyph horiz-adv-x="1152" d="M 1084 1524 L 1084 1344 L 332 1344 L 796 784 L 304 188 L 1080 188 L 1080 0 L 40 0 L 40 172 L 560 788 L 68 1380 L 68 1524 L 1084 1524 Z" unicode="∑" />
<glyph horiz-adv-x="829" d="M 780 715 L 49 715 L 49 870 L 780 870 L 780 715 Z" unicode="−" />
<glyph horiz-adv-x="743" d="M 707 616 L 37 616 L 37 795 L 707 795 L 707 616 Z" unicode="–" />
<glyph horiz-adv-x="1126" d="M 1028 618 L 96 618 L 96 797 L 1028 797 L 1028 618 Z" unicode="—" />
<glyph horiz-adv-x="303" d="M 494 1628 C 377 1296 277 1019 193 799 C 117 603 22 336 -94 0 L -195 0 C -45 419 59 706 119 862 C 181 1025 272 1280 393 1628 L 494 1628 Z" unicode="∕" />
<glyph horiz-adv-x="332" d="M 279 1442 L 279 1163 L 63 1163 L 63 1452 L 197 1640 L 289 1589 L 221 1450 L 227 1442 L 279 1442 Z" unicode="‘" />
<glyph horiz-adv-x="332" d="M 59 1354 L 59 1632 L 274 1632 L 274 1341 L 139 1155 L 49 1204 L 115 1343 L 111 1354 L 59 1354 Z" unicode="’" />
<glyph horiz-adv-x="332" d="M 59 0 L 59 279 L 274 279 L 274 -10 L 139 -201 L 49 -150 L 115 -8 L 111 0 L 59 0 Z" unicode="‚" />
<glyph horiz-adv-x="629" d="M 567 1436 L 567 1163 L 362 1163 L 362 1448 L 496 1640 L 586 1589 L 514 1444 L 518 1436 L 567 1436 Z M 272 1436 L 272 1163 L 66 1163 L 66 1448 L 201 1640 L 291 1589 L 219 1444 L 223 1436 L 272 1436 Z" unicode="“" />
<glyph horiz-adv-x="629" d="M 365 1360 L 365 1632 L 571 1632 L 571 1348 L 436 1155 L 346 1204 L 418 1350 L 414 1360 L 365 1360 Z M 70 1360 L 70 1632 L 276 1632 L 276 1348 L 141 1155 L 51 1204 L 123 1350 L 119 1360 L 70 1360 Z" unicode="”" />
<glyph horiz-adv-x="629" d="M 365 0 L 365 272 L 571 272 L 571 -10 L 436 -205 L 346 -156 L 418 -8 L 414 0 L 365 0 Z M 70 0 L 70 272 L 276 272 L 276 -10 L 141 -205 L 51 -156 L 123 -8 L 119 0 L 70 0 Z" unicode="„" />
<glyph horiz-adv-x="397" d="" unicode=" " />
<glyph horiz-adv-x="430" d="M 313 1628 L 293 391 L 137 391 L 117 1628 L 313 1628 Z M 307 0 L 121 0 L 121 279 L 307 279 L 307 0 Z" unicode="!" />
<glyph horiz-adv-x="623" d="M 557 1628 L 549 993 L 389 993 L 381 1628 L 557 1628 Z M 240 1628 L 229 993 L 72 993 L 63 1628 L 240 1628 Z" unicode="&#x22;" />
<glyph horiz-adv-x="862" d="M 836 1042 L 821 905 L 639 905 L 614 705 L 801 705 L 788 567 L 598 567 L 532 -6 L 424 -6 L 487 567 L 313 567 L 244 -6 L 135 -6 L 203 567 L 23 567 L 37 705 L 219 705 L 244 905 L 55 905 L 70 1042 L 260 1042 L 322 1561 L 432 1561 L 371 1042 L 547 1042 L 608 1561 L 721 1561 L 655 1042 L 836 1042 Z M 528 905 L 354 905 L 330 705 L 504 705 L 528 905 Z" unicode="#" />
<glyph horiz-adv-x="926" d="M 412 12 C 347 17 290 30 242 50 C 193 70 154 96 125 128 C 96 160 75 199 61 247 C 47 294 41 361 41 449 L 213 449 L 213 418 C 213 352 220 303 234 271 C 248 239 270 215 301 198 C 331 181 368 170 412 166 L 412 780 C 356 812 295 853 230 905 C 165 957 119 1011 92 1069 C 64 1127 51 1196 51 1278 C 51 1374 83 1451 148 1509 C 213 1567 301 1599 412 1606 L 412 1653 L 514 1653 L 514 1604 C 570 1598 620 1586 662 1566 C 704 1546 740 1519 770 1483 C 800 1447 822 1405 836 1356 C 850 1307 858 1239 858 1153 L 686 1153 L 687 1190 C 687 1275 673 1336 647 1374 C 621 1412 576 1434 514 1442 L 514 915 L 565 883 C 666 817 736 764 774 724 C 812 684 839 639 855 589 C 871 539 879 475 879 397 C 879 281 847 191 784 126 C 721 60 631 23 514 14 L 514 -92 L 412 -92 L 412 12 Z M 412 1448 C 340 1441 290 1425 261 1399 C 231 1373 217 1331 217 1274 C 217 1218 230 1168 256 1125 C 282 1082 334 1034 412 981 L 412 1448 Z M 514 166 C 578 174 626 196 658 234 C 690 271 707 328 707 406 C 707 477 691 536 660 584 C 628 631 580 674 514 713 L 514 166 Z" unicode="$" />
<glyph horiz-adv-x="1411" d="M 666 1124 C 666 1029 638 952 583 894 C 528 836 454 807 360 807 C 267 807 193 835 139 893 C 84 951 57 1028 57 1124 L 57 1333 C 57 1429 83 1505 137 1563 C 190 1620 265 1649 362 1649 C 457 1649 531 1620 585 1564 C 639 1508 666 1431 666 1333 L 666 1124 Z M 1106 1577 L 387 0 L 276 0 L 995 1577 L 1106 1577 Z M 1352 301 C 1352 201 1325 124 1272 68 C 1219 12 1143 -16 1044 -16 C 950 -16 877 12 823 69 C 769 125 743 203 743 301 L 743 508 C 743 603 770 680 825 739 C 879 797 953 827 1047 827 C 1110 827 1165 813 1211 786 C 1257 759 1292 721 1316 673 C 1340 625 1352 570 1352 508 L 1352 301 Z M 526 1126 L 526 1341 C 526 1391 511 1432 481 1464 C 451 1495 411 1511 362 1511 C 308 1511 267 1495 239 1465 C 211 1435 197 1393 197 1341 L 197 1128 C 197 1070 212 1025 242 992 C 272 958 312 942 362 942 C 413 942 453 958 482 990 C 511 1022 526 1067 526 1126 Z M 1212 305 L 1212 518 C 1212 567 1197 608 1167 640 C 1137 672 1097 688 1047 688 C 995 688 954 672 925 642 C 895 612 881 570 881 518 L 881 307 C 881 249 896 204 926 171 C 956 137 997 121 1047 121 C 1101 121 1142 136 1170 168 C 1198 200 1212 245 1212 305 Z" unicode="%" />
<glyph horiz-adv-x="1147" d="M 496 819 C 582 680 684 538 801 393 C 847 513 872 632 877 748 L 1038 748 C 1035 548 995 384 918 258 L 1130 0 L 897 0 L 799 117 C 749 67 693 33 631 14 C 569 -4 501 -14 428 -14 C 342 -14 269 0 211 27 C 152 55 107 97 75 154 C 43 210 27 287 27 385 C 27 455 35 512 53 557 C 70 601 96 646 131 690 C 166 734 216 786 281 844 C 199 986 157 1117 156 1239 L 156 1346 C 157 1438 186 1510 243 1561 C 299 1612 376 1638 473 1638 C 559 1638 627 1613 679 1563 C 730 1513 758 1444 762 1356 L 762 1270 C 760 1199 740 1130 702 1062 C 664 994 596 913 496 819 Z M 412 961 C 532 1064 593 1165 596 1264 L 596 1343 C 594 1383 582 1416 560 1443 C 538 1469 505 1483 461 1483 C 417 1483 383 1469 359 1442 C 335 1414 321 1379 319 1335 L 319 1237 C 321 1155 352 1063 412 961 Z M 367 705 C 256 594 201 488 201 387 C 201 309 219 250 255 209 C 291 167 344 147 414 147 C 478 147 531 154 573 170 C 615 186 655 213 694 252 C 567 404 458 555 367 705 Z" unicode="&#x26;" />
<glyph horiz-adv-x="422" d="M 301 1628 L 291 977 L 127 977 L 119 1628 L 301 1628 Z" unicode="'" />
<glyph horiz-adv-x="485" d="M 473 -141 L 291 -141 C 219 -25 161 112 117 272 C 73 432 51 589 51 743 C 51 888 73 1043 118 1209 C 163 1374 221 1514 291 1628 L 473 1628 C 407 1522 351 1384 305 1214 C 259 1044 236 886 236 739 C 236 587 258 430 303 268 C 348 105 405 -31 473 -141 Z" unicode="(" />
<glyph horiz-adv-x="485" d="M 446 743 C 446 595 424 441 382 282 C 340 123 281 -17 207 -141 L 25 -141 C 95 -26 152 112 196 274 C 240 436 262 591 262 739 C 262 886 239 1044 193 1212 C 147 1380 91 1518 25 1628 L 207 1628 C 249 1560 289 1477 325 1379 C 361 1281 391 1176 413 1064 C 435 952 446 845 446 743 Z" unicode=")" />
<glyph horiz-adv-x="874" d="M 492 1364 L 721 1475 L 768 1343 L 524 1243 L 711 1038 L 608 950 L 434 1167 L 264 950 L 160 1040 L 342 1243 L 94 1343 L 139 1475 L 375 1364 L 369 1640 L 500 1640 L 492 1364 Z" unicode="*" />
<glyph horiz-adv-x="829" d="M 780 711 L 496 711 L 496 414 L 334 414 L 334 711 L 49 711 L 49 874 L 334 874 L 334 1165 L 496 1165 L 496 874 L 780 874 L 780 711 Z" unicode="+" />
<glyph horiz-adv-x="471" d="M 338 -6 L 221 -199 L 113 -174 L 193 -2 L 182 0 L 129 0 L 129 291 L 338 291 L 338 -6 Z" unicode="," />
<glyph horiz-adv-x="664" d="M 641 702 L 25 702 L 25 881 L 641 881 L 641 702 Z" unicode="-" />
<glyph horiz-adv-x="471" d="M 344 0 L 125 0 L 125 291 L 344 291 L 344 0 Z" unicode="." />
<glyph horiz-adv-x="444" d="M 467 1634 L 55 -328 L -55 -328 L 358 1634 L 467 1634 Z" unicode="/" />
<glyph horiz-adv-x="944" d="M 475 1640 C 587 1640 678 1611 747 1553 C 816 1495 856 1415 868 1315 C 880 1213 887 1047 887 817 C 887 551 875 368 851 270 C 827 172 784 100 721 54 C 657 8 575 -14 473 -14 C 349 -14 255 17 191 80 C 127 143 89 246 77 390 C 65 533 59 675 59 815 L 59 942 C 59 1090 63 1205 73 1288 C 82 1370 103 1437 137 1487 C 170 1537 215 1575 273 1601 C 331 1627 398 1640 475 1640 Z M 702 817 C 702 1070 698 1228 690 1290 C 684 1348 662 1393 625 1427 C 588 1460 537 1477 473 1477 C 405 1477 353 1459 317 1425 C 281 1390 260 1344 254 1288 C 251 1267 248 1213 246 1125 C 243 1037 242 958 242 886 L 242 815 C 242 630 249 468 264 328 C 270 271 291 226 327 194 C 363 161 412 145 475 145 C 590 145 660 205 686 326 C 696 370 702 478 702 648 L 702 817 Z" unicode="0" />
<glyph horiz-adv-x="649" d="M 512 0 L 332 0 L 332 1389 L 51 1343 L 51 1493 C 152 1509 228 1527 279 1548 C 330 1569 364 1597 381 1632 L 512 1632 L 512 0 Z" unicode="1" />
<glyph horiz-adv-x="897" d="M 858 0 L 45 0 L 45 170 L 184 326 C 356 510 475 664 541 788 C 607 911 643 1033 647 1155 L 647 1280 C 645 1344 628 1392 596 1424 C 564 1456 515 1473 449 1473 C 377 1473 325 1458 291 1428 C 257 1398 238 1354 233 1296 L 231 1217 L 231 1130 L 53 1130 L 53 1223 L 55 1317 C 63 1421 102 1500 171 1556 C 240 1612 335 1640 457 1640 C 583 1640 679 1609 743 1548 C 807 1487 839 1399 839 1283 L 839 1182 C 839 1036 795 885 708 729 C 620 573 468 386 250 168 L 858 168 L 858 0 Z" unicode="2" />
<glyph horiz-adv-x="907" d="M 606 870 C 644 867 680 856 714 837 C 748 818 776 793 800 761 C 823 729 839 693 848 654 C 857 614 862 549 862 458 C 862 348 853 268 837 218 C 821 168 795 125 760 90 C 724 55 680 29 628 12 C 576 -5 514 -14 442 -14 C 350 -14 273 2 211 34 C 149 66 105 112 79 171 C 53 230 41 335 41 487 L 221 487 C 221 397 226 327 236 277 C 246 227 268 192 302 172 C 336 152 382 143 442 143 C 498 143 543 152 578 171 C 613 189 638 217 654 254 C 669 290 677 357 677 454 C 677 545 669 610 653 650 C 637 689 613 718 579 737 C 545 755 498 766 440 770 L 407 770 L 252 772 L 252 936 L 337 937 L 369 937 L 420 938 L 430 938 C 481 942 522 952 553 969 C 583 986 606 1012 620 1047 C 634 1081 642 1139 642 1220 C 642 1302 635 1359 622 1389 C 608 1419 587 1441 559 1455 C 531 1469 494 1477 449 1477 C 388 1477 342 1463 311 1437 C 280 1411 262 1377 256 1335 C 250 1287 248 1228 248 1159 L 78 1159 C 78 1262 81 1334 88 1374 C 104 1460 143 1525 207 1571 C 271 1617 353 1640 455 1640 C 515 1640 567 1633 612 1619 C 657 1605 695 1585 725 1559 C 755 1533 778 1500 794 1462 C 810 1424 818 1364 818 1282 C 818 1229 815 1176 809 1123 C 803 1069 792 1026 774 992 C 756 958 733 930 704 909 C 674 887 642 874 606 870 Z" unicode="3" />
<glyph horiz-adv-x="920" d="M 909 389 L 739 389 L 739 0 L 565 0 L 565 389 L 25 389 L 25 567 L 541 1634 L 739 1634 L 739 551 L 909 551 L 909 389 Z M 565 551 L 565 1339 L 188 551 L 565 551 Z" unicode="4" />
<glyph horiz-adv-x="911" d="M 459 -14 C 392 -14 333 -6 283 9 C 232 24 190 47 156 77 C 122 107 97 145 81 189 C 65 233 57 308 57 412 L 57 463 L 233 463 L 233 438 C 233 343 240 279 254 246 C 268 213 291 189 323 173 C 354 157 397 150 451 150 C 507 150 552 159 587 178 C 622 197 646 227 660 267 C 673 307 680 408 680 570 C 678 646 676 704 672 743 C 659 856 590 913 465 913 C 352 913 283 863 258 764 L 84 764 L 84 1628 L 807 1628 L 807 1458 L 248 1458 L 248 952 C 267 992 300 1023 348 1046 C 395 1069 450 1081 512 1081 C 573 1081 626 1072 672 1054 C 718 1036 756 1009 786 973 C 816 937 837 894 849 842 C 861 790 868 692 868 550 C 868 456 865 375 859 307 C 853 238 833 180 799 132 C 765 84 719 47 661 23 C 603 -1 535 -14 459 -14 Z" unicode="5" />
<glyph horiz-adv-x="932" d="M 479 -14 C 369 -14 284 9 224 56 C 163 103 119 178 92 281 C 83 309 76 376 70 483 C 64 590 61 701 61 815 C 61 951 63 1075 69 1188 C 75 1300 93 1388 123 1450 C 153 1512 196 1559 254 1591 C 312 1623 383 1640 467 1640 C 579 1640 665 1620 723 1582 C 781 1543 819 1479 836 1389 C 841 1358 844 1315 844 1259 L 844 1227 L 672 1227 L 668 1321 C 660 1377 640 1416 610 1440 C 580 1463 531 1475 465 1475 C 334 1475 262 1401 250 1253 C 243 1159 240 1038 240 889 C 263 927 299 958 348 982 C 397 1006 457 1018 528 1018 C 591 1018 646 1008 693 988 C 740 968 778 939 806 901 C 834 862 851 815 858 761 C 864 707 868 624 868 512 C 866 408 861 325 852 265 C 842 204 821 152 789 110 C 756 67 714 36 664 16 C 613 -4 551 -14 479 -14 Z M 692 582 C 692 652 688 701 681 730 C 674 759 663 783 647 802 C 631 820 611 834 585 843 C 559 851 528 856 492 856 C 426 856 370 842 324 814 C 278 786 250 752 240 711 C 240 675 241 605 244 499 C 246 393 253 322 264 288 C 274 254 289 226 308 205 C 327 183 352 167 383 157 C 413 146 445 141 477 143 C 598 143 666 191 680 289 C 688 357 692 454 692 582 Z" unicode="6" />
<glyph horiz-adv-x="780" d="M 770 1466 L 317 0 L 129 0 L 590 1456 L 8 1456 L 8 1628 L 770 1628 L 770 1466 Z" unicode="7" />
<glyph horiz-adv-x="918" d="M 457 -14 C 361 -14 282 3 221 37 C 159 71 114 120 86 185 C 57 250 43 344 43 466 C 43 534 47 596 57 651 C 66 706 81 749 103 780 C 125 811 151 836 181 856 C 211 876 242 888 274 893 C 232 902 197 924 168 959 C 139 994 121 1034 115 1079 C 103 1149 97 1211 97 1266 C 97 1357 110 1429 138 1482 C 166 1535 206 1575 259 1602 C 312 1628 378 1642 457 1642 C 513 1642 564 1633 611 1617 C 658 1601 697 1577 729 1547 C 760 1517 782 1481 796 1439 C 810 1397 817 1334 817 1252 C 817 1172 810 1110 797 1066 C 783 1022 762 984 732 952 C 702 920 670 900 635 893 C 684 885 728 864 767 828 C 806 792 833 748 849 696 C 864 644 872 565 872 459 C 872 340 857 248 827 183 C 797 117 752 68 691 35 C 629 2 551 -14 457 -14 Z M 652 1200 L 652 1230 C 650 1282 644 1327 636 1366 C 628 1404 608 1434 576 1454 C 544 1474 503 1485 455 1485 C 409 1485 370 1475 339 1456 C 308 1437 288 1410 280 1374 C 272 1338 268 1292 268 1235 C 268 1148 273 1089 283 1057 C 293 1025 312 1002 339 986 C 366 970 405 963 457 963 C 501 963 539 971 570 987 C 600 1003 622 1025 634 1053 C 646 1081 652 1130 652 1200 Z M 696 488 C 696 591 687 661 671 697 C 654 733 628 760 592 778 C 556 796 511 805 457 805 C 401 805 355 795 317 775 C 279 755 253 725 238 685 C 223 644 216 577 216 485 C 216 404 221 338 232 288 C 242 238 268 201 308 177 C 348 153 398 141 457 141 C 511 141 559 153 601 177 C 643 201 669 232 678 270 C 690 326 696 398 696 488 Z" unicode="8" />
<glyph horiz-adv-x="924" d="M 432 -14 C 335 -14 256 8 196 52 C 136 96 100 158 90 236 C 83 292 80 346 80 397 L 250 397 C 250 322 256 269 269 237 C 282 205 304 182 336 167 C 367 152 408 145 459 145 C 501 145 538 153 570 170 C 601 186 626 210 644 242 C 662 274 672 319 676 377 C 680 435 682 537 682 684 L 682 727 C 658 689 622 660 572 638 C 522 616 463 606 395 606 C 319 606 255 622 201 654 C 147 686 110 731 88 788 C 66 845 55 953 55 1111 C 55 1240 62 1332 78 1386 C 93 1440 117 1485 151 1523 C 185 1561 227 1590 278 1610 C 329 1630 388 1640 455 1640 C 557 1640 639 1620 701 1580 C 763 1540 805 1481 828 1405 C 850 1329 862 1140 862 838 C 862 576 856 404 846 322 C 831 210 790 126 723 70 C 655 14 558 -14 432 -14 Z M 682 901 L 682 959 C 682 1011 681 1075 679 1152 C 677 1229 674 1278 672 1300 C 663 1366 640 1413 603 1441 C 565 1469 516 1483 455 1483 C 400 1483 356 1471 323 1448 C 289 1424 266 1391 253 1348 C 239 1305 233 1224 233 1106 C 233 1022 236 960 242 920 C 258 817 325 766 444 766 C 502 766 553 778 597 804 C 641 830 669 862 682 901 Z" unicode="9" />
<glyph horiz-adv-x="459" d="M 334 797 L 137 797 L 137 1069 L 334 1069 L 334 797 Z M 334 0 L 137 0 L 137 272 L 334 272 L 334 0 Z" unicode=":" />
<glyph horiz-adv-x="459" d="M 334 797 L 137 797 L 137 1069 L 334 1069 L 334 797 Z M 336 -4 L 211 -201 L 121 -152 L 197 0 L 137 0 L 137 274 L 336 274 L 336 -4 Z" unicode=";" />
<glyph horiz-adv-x="934" d="M 858 555 L 858 379 L 63 686 L 63 856 L 858 1163 L 858 983 L 248 772 L 858 555 Z" unicode="&#x3C;" />
<glyph horiz-adv-x="823" d="M 780 862 L 47 862 L 47 1024 L 780 1024 L 780 862 Z M 780 549 L 47 549 L 47 711 L 780 711 L 780 549 Z" unicode="=" />
<glyph horiz-adv-x="934" d="M 68 379 L 68 555 L 676 770 L 68 983 L 68 1163 L 862 856 L 862 686 L 68 379 Z" unicode="&#x3E;" />
<glyph horiz-adv-x="838" d="M 457 391 L 301 391 C 301 589 351 753 451 885 C 509 962 548 1017 567 1051 C 585 1084 598 1114 604 1142 C 610 1170 614 1212 614 1270 C 614 1325 607 1367 594 1397 C 580 1426 559 1448 530 1463 C 500 1477 462 1485 414 1485 C 284 1485 217 1427 211 1313 L 205 1204 L 35 1204 C 35 1271 39 1333 47 1389 C 75 1557 202 1642 426 1642 C 538 1642 626 1618 689 1572 C 752 1525 788 1456 797 1366 L 800 1277 L 797 1184 C 789 1093 749 1007 679 926 C 613 850 566 788 539 740 C 511 692 491 639 477 581 C 463 523 457 459 457 391 Z M 475 0 L 287 0 L 287 279 L 475 279 L 475 0 Z" unicode="?" />
<glyph horiz-adv-x="1573" d="M 1145 324 C 1091 324 1048 339 1016 371 C 984 403 968 446 967 500 C 937 445 895 403 841 373 C 787 343 726 328 659 328 C 573 328 505 355 457 410 C 408 465 384 543 384 644 C 384 742 401 834 437 920 C 473 1006 523 1073 587 1119 C 651 1165 724 1188 807 1188 C 856 1188 900 1174 940 1148 C 980 1121 1008 1086 1024 1042 L 1055 1157 L 1188 1159 C 1176 1095 1153 984 1119 828 C 1091 705 1077 637 1075 623 C 1073 609 1073 595 1073 581 C 1073 493 1108 449 1178 449 C 1251 449 1308 491 1350 577 C 1392 663 1413 777 1413 919 C 1413 1103 1365 1245 1271 1345 C 1177 1445 1043 1495 870 1495 C 732 1495 609 1460 501 1392 C 392 1323 308 1226 249 1102 C 190 977 161 830 161 660 C 161 445 210 280 309 165 C 408 49 547 -8 727 -8 C 919 -8 1080 47 1210 158 L 1257 84 C 1179 20 1096 -25 1010 -53 C 924 -80 829 -94 725 -94 C 517 -94 355 -28 238 103 C 121 235 63 422 63 664 C 63 853 97 1015 166 1151 C 235 1287 332 1392 457 1466 C 581 1540 722 1577 879 1577 C 997 1577 1097 1557 1181 1517 C 1264 1477 1331 1423 1383 1355 C 1434 1287 1469 1213 1487 1135 C 1505 1057 1514 982 1514 910 C 1514 798 1499 696 1470 604 C 1440 512 1398 443 1342 395 C 1286 347 1220 324 1145 324 Z M 984 892 C 984 935 967 974 935 1008 C 903 1042 864 1059 819 1059 C 763 1059 713 1041 669 1007 C 625 973 590 924 565 860 C 539 796 527 728 527 656 C 527 601 539 554 563 516 C 587 478 631 459 694 459 C 824 459 906 531 940 676 C 969 792 984 864 984 892 Z" unicode="@" />
<glyph horiz-adv-x="993" d="M 274 399 L 186 0 L 2 0 L 397 1628 L 629 1628 L 991 0 L 803 0 L 717 399 L 274 399 Z M 684 563 L 530 1268 L 508 1427 L 481 1268 L 313 563 L 684 563 Z" unicode="A" />
<glyph horiz-adv-x="1059" d="M 637 0 L 117 0 L 117 1628 L 590 1628 C 826 1628 944 1495 944 1229 C 944 983 875 852 737 836 C 825 819 889 780 931 719 C 972 657 993 564 993 440 C 993 295 963 185 903 111 C 843 37 754 0 637 0 Z M 756 1190 C 756 1278 741 1344 713 1390 C 685 1435 637 1458 571 1458 L 295 1458 L 295 903 L 602 903 C 660 903 700 926 722 973 C 744 1020 756 1092 756 1190 Z M 803 457 C 803 558 789 630 761 672 C 733 714 679 735 598 735 L 295 735 L 295 168 L 610 168 C 682 168 733 189 761 233 C 789 277 803 351 803 457 Z" unicode="B" />
<glyph horiz-adv-x="1042" d="M 997 553 C 997 437 981 335 950 246 C 918 156 868 90 799 48 C 730 5 645 -16 545 -16 C 457 -16 384 -2 326 24 C 268 51 219 95 179 157 C 139 219 109 307 91 422 C 72 536 63 670 63 823 C 63 1037 78 1202 108 1316 C 138 1430 189 1512 261 1564 C 333 1616 428 1642 547 1642 C 646 1642 730 1621 800 1580 C 870 1538 918 1481 944 1407 C 978 1311 995 1197 995 1067 L 811 1067 C 811 1123 805 1183 794 1245 C 782 1307 766 1353 746 1382 C 726 1410 699 1432 665 1446 C 631 1460 591 1468 545 1468 C 483 1468 433 1457 395 1436 C 357 1415 328 1381 309 1333 C 289 1285 275 1218 267 1133 C 258 1048 254 944 254 821 C 254 732 259 637 269 537 C 279 437 291 361 305 311 C 319 260 347 220 389 191 C 430 161 483 147 549 147 C 648 147 717 180 756 247 C 795 314 815 416 815 553 L 997 553 Z" unicode="C" />
<glyph horiz-adv-x="1038" d="M 559 0 L 117 0 L 117 1628 L 547 1628 C 637 1628 713 1612 775 1580 C 837 1548 882 1505 910 1449 C 938 1393 957 1329 967 1257 C 976 1185 981 1048 981 844 C 981 604 975 443 963 361 C 951 278 927 210 892 157 C 857 103 812 64 756 38 C 700 12 634 0 559 0 Z M 797 844 L 797 1024 C 797 1149 786 1241 766 1300 C 746 1359 715 1400 674 1422 C 632 1444 582 1456 524 1456 L 297 1456 L 297 168 L 535 168 C 587 168 632 177 671 196 C 710 214 738 242 755 278 C 771 314 782 369 788 443 C 794 517 797 650 797 844 Z" unicode="D" />
<glyph horiz-adv-x="918" d="M 864 0 L 117 0 L 117 1628 L 860 1628 L 860 1456 L 297 1456 L 297 905 L 827 905 L 827 735 L 297 735 L 297 172 L 864 172 L 864 0 Z" unicode="E" />
<glyph horiz-adv-x="891" d="M 856 1456 L 299 1456 L 299 907 L 825 907 L 825 735 L 299 735 L 299 0 L 117 0 L 117 1628 L 856 1628 L 856 1456 Z" unicode="F" />
<glyph horiz-adv-x="1024" d="M 961 0 L 821 0 L 811 127 C 784 81 744 45 692 21 C 639 -3 578 -16 508 -16 C 395 -16 307 11 244 65 C 181 119 135 206 106 326 C 77 445 63 607 63 813 C 63 1034 78 1201 108 1315 C 138 1429 187 1512 255 1565 C 322 1618 413 1645 528 1645 C 667 1645 772 1600 844 1512 C 916 1424 952 1286 952 1100 L 774 1100 C 774 1232 753 1326 713 1384 C 673 1441 611 1470 528 1470 C 452 1470 395 1451 357 1414 C 319 1377 292 1315 276 1228 C 260 1140 252 1001 252 809 C 252 607 260 463 277 378 C 293 293 321 232 360 196 C 398 159 456 141 532 141 C 598 141 653 158 699 193 C 744 227 774 276 788 338 L 788 715 L 475 715 L 475 881 L 958 881 L 958 399 L 961 0 Z" unicode="G" />
<glyph horiz-adv-x="1071" d="M 956 0 L 774 0 L 774 733 L 299 733 L 299 0 L 117 0 L 117 1628 L 299 1628 L 299 907 L 774 907 L 774 1628 L 956 1628 L 956 0 Z" unicode="H" />
<glyph horiz-adv-x="418" d="M 303 0 L 117 0 L 117 1628 L 303 1628 L 303 0 Z" unicode="I" />
<glyph horiz-adv-x="698" d="M 594 340 C 594 228 562 142 499 82 C 435 22 345 -8 227 -8 C 157 -8 87 -2 18 8 L 18 172 C 70 162 133 158 207 158 C 277 158 329 174 361 207 C 393 240 410 296 410 375 L 410 1628 L 594 1628 L 594 340 Z" unicode="J" />
<glyph horiz-adv-x="991" d="M 991 0 L 788 0 L 403 766 L 299 618 L 299 0 L 117 0 L 117 1628 L 299 1628 L 299 877 L 780 1628 L 981 1628 L 526 922 L 991 0 Z" unicode="K" />
<glyph horiz-adv-x="862" d="M 838 0 L 117 0 L 117 1628 L 301 1628 L 301 172 L 838 172 L 838 0 Z" unicode="L" />
<glyph horiz-adv-x="1329" d="M 1217 0 L 1047 0 L 1047 1153 L 750 0 L 571 0 L 287 1151 L 287 0 L 117 0 L 117 1628 L 340 1628 L 664 281 L 997 1628 L 1217 1628 L 1217 0 Z" unicode="M" />
<glyph horiz-adv-x="1061" d="M 948 0 L 743 0 L 287 1245 L 287 0 L 117 0 L 117 1628 L 328 1628 L 776 395 L 776 1628 L 948 1628 L 948 0 Z" unicode="N" />
<glyph horiz-adv-x="1071" d="M 537 1642 C 654 1642 748 1615 818 1563 C 888 1511 938 1430 967 1322 C 995 1213 1010 1046 1010 821 C 1010 593 994 423 963 311 C 931 199 882 117 815 64 C 748 10 655 -16 537 -16 C 366 -16 244 41 172 156 C 99 271 63 491 63 817 C 63 987 73 1127 93 1236 C 113 1345 141 1426 178 1479 C 214 1532 264 1572 326 1600 C 388 1628 458 1642 537 1642 Z M 537 143 C 594 143 643 155 683 181 C 723 207 753 246 771 298 C 789 350 803 419 812 506 C 820 592 825 695 825 815 C 825 935 819 1045 807 1147 C 795 1248 779 1317 757 1355 C 735 1392 704 1420 666 1440 C 628 1460 585 1470 537 1470 C 488 1470 445 1460 408 1442 C 371 1423 342 1394 321 1356 C 299 1318 282 1248 270 1148 C 258 1048 252 935 252 811 C 252 687 256 581 265 491 C 274 401 288 334 306 288 C 324 242 353 206 393 181 C 433 155 481 143 537 143 Z" unicode="O" />
<glyph horiz-adv-x="999" d="M 946 1128 C 946 1004 935 910 913 846 C 891 782 853 731 801 695 C 748 659 680 639 598 635 L 536 634 L 435 634 L 299 635 L 299 0 L 117 0 L 117 1628 L 606 1628 C 692 1628 760 1608 808 1570 C 856 1532 891 1477 913 1407 C 935 1337 946 1244 946 1128 Z M 760 1124 C 760 1248 749 1330 727 1370 C 708 1402 687 1424 663 1437 C 639 1449 607 1456 567 1456 L 299 1456 L 299 803 L 557 803 C 609 803 651 814 682 836 C 713 858 734 890 744 932 C 754 973 760 1037 760 1124 Z" unicode="P" />
<glyph horiz-adv-x="1071" d="M 739 25 C 755 9 784 -12 826 -39 C 868 -65 900 -81 920 -86 L 815 -227 C 781 -214 736 -188 682 -150 C 628 -112 576 -66 528 -12 C 360 -12 241 45 170 160 C 98 275 63 494 63 817 C 63 987 73 1127 93 1236 C 113 1345 141 1426 178 1479 C 214 1532 264 1572 326 1600 C 388 1628 458 1642 537 1642 C 654 1642 748 1615 818 1563 C 888 1511 938 1430 967 1322 C 995 1213 1010 1046 1010 821 C 1010 646 1001 508 984 406 C 966 304 938 223 900 163 C 861 103 807 57 739 25 Z M 537 141 C 594 141 643 153 683 179 C 723 205 753 243 771 295 C 789 347 802 416 811 504 C 820 591 825 695 825 815 C 825 935 819 1045 807 1147 C 795 1248 779 1317 757 1355 C 735 1392 704 1420 666 1440 C 628 1460 585 1470 537 1470 C 488 1470 445 1460 408 1442 C 371 1423 342 1394 321 1356 C 299 1318 282 1248 270 1148 C 258 1048 252 935 252 811 C 252 689 256 582 265 492 C 274 402 288 333 306 287 C 324 240 353 204 393 179 C 433 153 481 141 537 141 Z" unicode="Q" />
<glyph horiz-adv-x="1032" d="M 932 1176 C 932 1040 915 941 882 879 C 849 817 806 780 754 766 L 1004 0 L 819 0 L 578 729 L 295 729 L 295 0 L 117 0 L 117 1628 L 606 1628 C 684 1628 748 1610 796 1576 C 844 1542 879 1492 900 1426 C 921 1360 932 1277 932 1176 Z M 743 1155 C 743 1258 737 1326 727 1359 C 716 1391 698 1417 672 1435 C 646 1453 614 1461 575 1460 L 297 1460 L 297 891 L 443 892 L 497 892 L 580 893 L 596 893 C 623 894 646 899 665 908 C 683 916 698 928 709 944 C 719 960 728 988 734 1029 C 740 1070 743 1112 743 1155 Z" unicode="R" />
<glyph horiz-adv-x="989" d="M 934 391 C 934 258 897 157 824 88 C 751 18 644 -16 502 -16 C 244 -16 100 74 70 256 C 61 303 57 369 57 455 L 238 455 C 238 415 242 361 250 293 C 264 193 350 143 508 143 C 587 143 646 161 686 199 C 725 236 745 295 745 377 C 745 453 728 516 695 566 C 661 616 602 668 516 723 L 356 825 C 242 898 164 968 122 1036 C 80 1104 59 1184 59 1276 C 59 1388 95 1477 168 1542 C 240 1607 343 1640 475 1640 C 602 1640 700 1616 770 1568 C 839 1520 885 1443 907 1339 C 913 1309 917 1280 917 1253 C 917 1225 918 1199 918 1174 L 733 1174 L 733 1235 C 733 1319 713 1381 673 1419 C 633 1457 567 1477 477 1477 C 325 1477 250 1410 250 1276 C 250 1210 266 1154 298 1110 C 330 1065 392 1014 483 956 L 637 862 C 748 792 825 721 869 649 C 912 577 934 491 934 391 Z" unicode="S" />
<glyph horiz-adv-x="879" d="M 874 1458 L 532 1458 L 532 0 L 346 0 L 346 1458 L 6 1458 L 6 1628 L 874 1628 L 874 1458 Z" unicode="T" />
<glyph horiz-adv-x="1051" d="M 946 352 C 946 233 908 142 834 79 C 760 15 657 -16 526 -16 C 388 -16 282 16 209 81 C 136 145 100 238 100 360 L 100 1628 L 283 1628 L 283 377 C 283 302 303 245 345 207 C 386 169 447 150 528 150 C 600 150 657 168 700 205 C 742 242 764 299 764 375 L 764 1628 L 946 1628 L 946 352 Z" unicode="U" />
<glyph horiz-adv-x="1004" d="M 999 1628 L 610 0 L 389 0 L 0 1628 L 193 1628 L 504 256 L 815 1628 L 999 1628 Z" unicode="V" />
<glyph horiz-adv-x="1468" d="M 1466 1628 L 1165 0 L 952 0 C 882 386 829 695 791 926 C 753 1156 735 1288 735 1321 C 735 1297 715 1167 676 929 C 637 691 583 381 514 0 L 301 0 L 0 1628 L 186 1628 C 258 1238 314 921 356 677 C 397 433 418 297 418 270 C 418 303 439 451 481 713 C 523 975 575 1280 637 1628 L 842 1628 C 916 1190 970 861 1006 639 C 1041 417 1059 294 1059 270 C 1059 299 1080 440 1124 692 C 1168 944 1225 1256 1296 1628 L 1466 1628 Z" unicode="W" />
<glyph horiz-adv-x="965" d="M 483 631 L 197 0 L 2 0 L 391 827 L 33 1628 L 231 1628 L 487 1042 L 754 1628 L 948 1628 L 580 848 L 961 0 L 762 0 L 483 631 Z" unicode="X" />
<glyph horiz-adv-x="1020" d="M 1018 1628 L 594 578 L 594 0 L 408 0 L 408 573 L 2 1628 L 193 1628 C 400 1083 504 800 504 780 C 504 792 540 892 613 1078 C 685 1264 759 1448 834 1628 L 1018 1628 Z" unicode="Y" />
<glyph horiz-adv-x="889" d="M 866 0 L 37 0 L 37 160 L 643 1456 L 68 1456 L 68 1628 L 848 1628 L 848 1483 L 236 172 L 866 172 L 866 0 Z" unicode="Z" />
<glyph horiz-adv-x="549" d="M 492 -342 L 96 -342 L 96 1628 L 492 1628 L 492 1487 L 262 1487 L 262 -205 L 492 -205 L 492 -342 Z" unicode="[" />
<glyph horiz-adv-x="444" d="M -20 1634 L 90 1634 L 504 -328 L 393 -328 L -20 1634 Z" unicode="\" />
<glyph horiz-adv-x="549" d="M 57 -342 L 57 -205 L 285 -205 L 285 1489 L 57 1489 L 57 1628 L 449 1628 L 449 -342 L 57 -342 Z" unicode="]" />
<glyph horiz-adv-x="940" d="M 471 1493 L 154 1141 L 45 1249 L 385 1632 L 559 1632 L 901 1249 L 793 1141 L 471 1493 Z" unicode="^" />
<glyph horiz-adv-x="690" d="M 690 -295 L 0 -295 L 0 -135 L 690 -135 L 690 -295 Z" unicode="_" />
<glyph horiz-adv-x="700" d="M 500 1206 L 334 1206 L 158 1470 L 344 1470 L 500 1206 Z" unicode="`" />
<glyph horiz-adv-x="856" d="M 791 0 L 633 0 C 630 0 627 11 623 34 C 619 56 618 76 618 93 L 618 104 C 594 67 561 39 517 19 C 473 0 413 -10 338 -10 C 279 -10 228 1 185 24 C 141 46 109 79 87 121 C 65 163 54 220 54 293 C 54 389 72 465 108 520 C 144 575 197 615 267 641 C 337 667 427 680 536 681 L 614 678 L 614 769 L 612 868 C 608 914 592 947 565 965 C 538 983 500 993 451 993 C 401 993 361 982 331 962 C 301 942 280 915 270 883 C 259 851 254 801 254 735 L 92 735 C 92 820 98 885 112 929 C 125 973 146 1012 175 1044 C 203 1076 241 1101 287 1119 C 333 1136 387 1145 451 1145 C 659 1145 766 1062 774 897 L 777 708 L 777 602 L 774 339 L 774 180 C 774 136 775 98 779 65 C 783 31 787 10 791 0 Z M 557 543 C 449 543 368 528 314 500 C 260 472 227 428 217 369 C 214 350 213 327 213 300 C 213 242 228 200 259 172 C 289 144 333 131 389 131 C 425 131 459 137 491 151 C 523 164 549 185 570 215 C 590 245 603 283 609 330 C 614 376 617 416 617 450 L 617 484 L 616 539 C 596 541 577 543 557 543 Z" unicode="a" />
<glyph horiz-adv-x="907" d="M 520 1145 C 578 1145 629 1133 673 1110 C 716 1086 750 1053 776 1009 C 802 965 821 911 833 848 C 845 785 852 697 852 584 C 852 456 845 361 832 297 C 819 233 798 177 769 128 C 739 79 703 44 660 24 C 616 4 566 -6 510 -6 C 385 -6 300 28 256 98 L 244 0 L 92 0 L 92 1634 L 256 1634 L 256 1004 C 270 1046 302 1080 350 1106 C 398 1132 454 1145 520 1145 Z M 471 989 C 419 989 377 978 346 957 C 314 935 291 904 276 863 C 261 822 254 755 254 662 L 254 563 C 254 438 257 355 264 314 C 270 273 282 239 298 213 C 314 187 337 166 367 152 C 397 138 431 131 469 131 C 546 131 601 157 634 209 C 667 261 684 351 684 477 L 684 571 C 684 663 678 742 668 808 C 657 874 637 920 607 948 C 577 975 532 989 471 989 Z" unicode="b" />
<glyph horiz-adv-x="850" d="M 801 715 L 637 715 C 637 896 572 987 444 987 C 386 987 342 973 311 947 C 279 920 257 877 243 818 C 229 759 223 674 223 563 C 223 398 239 285 273 224 C 306 163 362 133 440 133 C 502 133 550 154 586 196 C 621 238 639 299 639 380 L 639 399 L 801 399 C 801 265 769 163 706 92 C 642 21 553 -14 438 -14 C 300 -14 202 31 142 123 C 82 215 53 362 53 565 C 53 765 85 912 150 1005 C 214 1098 315 1145 453 1145 C 567 1145 654 1108 713 1034 C 771 960 801 853 801 715 Z" unicode="c" />
<glyph horiz-adv-x="895" d="M 395 1139 C 521 1139 604 1102 645 1030 L 645 1630 L 811 1630 L 811 125 C 811 97 813 56 819 0 L 670 0 L 649 109 C 604 28 521 -12 401 -12 C 336 -12 280 0 234 25 C 187 49 152 83 129 127 C 105 171 87 229 74 301 C 61 373 55 457 55 551 C 55 640 60 719 71 788 C 82 856 100 917 125 969 C 150 1021 187 1063 236 1093 C 284 1123 337 1139 395 1139 Z M 440 983 C 396 983 359 973 329 955 C 299 937 276 906 261 863 C 246 820 236 773 230 721 C 224 669 221 613 221 553 C 221 443 226 359 238 301 C 250 242 272 198 304 170 C 336 141 380 127 436 127 C 466 127 493 132 518 142 C 542 152 563 166 580 184 C 597 202 611 229 621 265 C 631 301 638 336 642 371 C 646 406 649 466 649 551 C 649 683 642 778 628 834 C 614 890 592 929 561 951 C 529 972 489 983 440 983 Z" unicode="d" />
<glyph horiz-adv-x="852" d="M 807 344 C 807 228 776 139 714 77 C 652 15 560 -16 438 -16 C 300 -16 202 30 142 122 C 82 214 53 360 53 559 C 53 756 84 903 147 1000 C 209 1096 306 1145 436 1145 C 566 1145 661 1104 720 1022 C 779 940 809 817 809 653 L 809 496 L 219 496 C 219 366 235 273 269 215 C 302 157 355 129 428 129 C 509 129 565 145 597 178 C 629 210 645 266 645 344 L 807 344 Z M 643 629 L 643 676 C 643 787 625 868 590 918 C 555 968 503 993 434 993 C 359 993 304 965 270 909 C 236 853 219 759 219 629 L 643 629 Z" unicode="e" />
<glyph horiz-adv-x="547" d="M 535 975 L 326 975 L 326 0 L 156 0 L 156 975 L 18 975 L 18 1126 L 156 1126 L 156 1409 C 156 1483 179 1541 226 1583 C 272 1624 336 1645 418 1645 C 450 1645 493 1641 547 1634 L 547 1483 C 513 1488 475 1491 434 1491 C 400 1491 373 1481 354 1462 C 335 1443 326 1415 326 1378 L 326 1126 L 535 1126 L 535 975 Z" unicode="f" />
<glyph horiz-adv-x="846" d="M 410 1149 C 465 1149 515 1141 561 1127 C 607 1113 642 1093 666 1069 C 682 1088 707 1103 741 1115 C 775 1127 813 1133 853 1133 L 866 1133 L 866 991 L 838 991 C 772 991 734 986 723 977 C 749 939 763 875 763 787 L 763 725 C 763 639 756 575 743 534 C 730 493 709 458 679 428 C 649 398 613 375 569 360 C 525 345 474 338 418 338 C 378 338 343 341 313 349 C 283 357 262 365 248 375 C 215 367 199 347 199 315 C 199 291 211 274 237 266 C 262 257 330 250 442 246 C 584 240 687 216 753 174 C 819 132 852 67 852 -23 C 852 -114 817 -183 748 -230 C 679 -277 571 -301 424 -301 C 283 -301 179 -281 113 -243 C 47 -205 14 -144 14 -61 C 14 27 63 94 162 139 C 126 145 98 163 76 193 C 54 222 43 254 43 289 C 43 323 52 353 71 379 C 89 405 116 422 152 430 C 123 447 101 474 86 512 C 71 549 64 610 64 696 L 64 802 L 66 874 C 70 956 103 1023 164 1073 C 224 1123 306 1149 410 1149 Z M 414 1001 C 354 1001 309 987 279 959 C 249 931 232 894 229 848 L 227 736 L 229 623 C 233 527 294 479 412 479 C 470 479 514 490 544 514 C 574 537 591 573 596 623 L 598 691 L 598 742 C 598 800 596 842 594 866 C 582 956 522 1001 414 1001 Z M 420 -168 C 514 -168 583 -157 627 -136 C 670 -114 692 -80 692 -33 C 692 10 674 41 640 61 C 606 80 539 92 440 98 L 285 106 C 249 94 221 78 199 57 C 177 36 166 7 166 -31 C 166 -79 187 -113 229 -135 C 271 -157 334 -168 420 -168 Z" unicode="g" />
<glyph horiz-adv-x="866" d="M 791 0 L 618 0 L 616 141 L 616 465 L 616 831 C 616 932 563 983 459 983 C 399 983 350 966 314 932 C 278 898 260 852 260 793 L 260 0 L 92 0 L 92 1634 L 258 1634 L 258 1006 C 273 1049 303 1083 347 1107 C 391 1131 446 1143 512 1143 C 596 1143 662 1119 711 1072 C 759 1024 784 955 784 864 L 784 476 C 784 161 786 2 791 0 Z" unicode="h" />
<glyph horiz-adv-x="358" d="M 270 1272 L 88 1272 L 88 1489 L 270 1489 L 270 1272 Z M 274 0 L 106 0 C 104 1 101 9 98 25 C 95 40 94 62 94 90 L 94 1126 L 264 1126 L 264 100 C 264 71 265 48 268 30 C 270 12 272 2 274 0 Z" unicode="i" />
<glyph horiz-adv-x="369" d="M 279 1272 L 96 1272 L 96 1489 L 279 1489 L 279 1272 Z M 272 -121 C 272 -200 250 -261 207 -305 C 164 -349 103 -371 25 -371 C -30 -371 -65 -367 -80 -360 L -80 -215 C -62 -217 -41 -219 -16 -219 C 62 -219 102 -178 102 -96 L 102 1126 L 272 1126 L 272 -121 Z" unicode="j" />
<glyph horiz-adv-x="813" d="M 817 0 L 639 0 L 391 582 L 260 406 L 260 0 L 92 0 L 92 1634 L 260 1634 L 260 635 L 610 1126 L 795 1126 L 510 731 L 817 0 Z" unicode="k" />
<glyph horiz-adv-x="346" d="M 264 0 L 98 0 C 92 3 90 26 90 70 L 90 1530 C 90 1584 88 1619 84 1634 L 254 1634 C 258 1624 260 1597 260 1554 L 260 94 C 260 38 261 7 264 0 Z" unicode="l" />
<glyph horiz-adv-x="1298" d="M 1055 0 C 1051 0 1049 152 1049 458 L 1049 831 C 1049 884 1037 923 1014 947 C 990 971 953 983 901 983 C 854 983 815 967 784 936 C 752 904 737 865 737 817 L 737 0 L 575 0 L 575 842 C 575 886 563 920 539 945 C 515 970 479 983 430 983 C 380 983 340 965 308 931 C 276 897 260 855 260 805 L 260 0 L 92 0 L 92 1126 L 256 1126 L 256 997 C 272 1042 302 1078 345 1105 C 387 1131 436 1145 492 1145 C 547 1145 595 1132 635 1106 C 675 1080 701 1043 715 995 C 729 1042 757 1079 801 1105 C 844 1131 897 1145 961 1145 C 1041 1145 1102 1122 1144 1078 C 1186 1033 1208 968 1208 883 L 1208 482 C 1208 160 1210 0 1214 0 L 1055 0 Z" unicode="m" />
<glyph horiz-adv-x="866" d="M 788 0 L 623 0 C 620 0 618 18 617 55 C 616 91 616 156 616 250 L 616 827 C 616 929 561 981 453 981 C 391 981 344 963 310 927 C 276 891 260 842 260 780 L 260 0 L 92 0 L 92 1126 L 254 1126 L 254 991 C 268 1039 299 1076 345 1103 C 391 1129 449 1143 518 1143 C 606 1143 672 1119 717 1071 C 761 1023 784 954 784 864 L 784 260 C 784 86 785 0 788 0 Z" unicode="n" />
<glyph horiz-adv-x="887" d="M 836 565 C 836 366 803 219 738 125 C 673 31 575 -16 444 -16 C 309 -16 210 31 147 125 C 84 219 53 365 53 565 C 53 769 85 916 150 1008 C 214 1099 313 1145 446 1145 C 538 1145 613 1125 670 1085 C 727 1045 769 984 796 903 C 822 821 836 709 836 565 Z M 670 563 C 670 682 663 770 649 828 C 635 885 613 926 581 952 C 549 978 504 991 444 991 C 364 991 306 959 272 895 C 238 831 221 721 221 563 C 221 457 228 372 243 310 C 258 248 281 203 313 175 C 344 147 388 133 446 133 C 528 133 585 165 619 231 C 653 296 670 407 670 563 Z" unicode="o" />
<glyph horiz-adv-x="901" d="M 848 582 C 848 372 821 221 768 130 C 715 39 628 -6 506 -6 C 450 -6 400 2 355 19 C 309 36 277 59 258 88 L 258 -342 L 92 -342 L 92 1126 L 256 1126 L 256 1001 C 272 1043 303 1077 347 1104 C 391 1131 445 1145 508 1145 C 627 1145 713 1101 767 1013 C 821 925 848 781 848 582 Z M 680 571 C 680 682 673 765 659 821 C 645 877 622 919 591 947 C 560 975 519 989 467 989 C 415 989 374 974 344 945 C 314 916 291 874 277 818 C 263 762 256 679 256 571 C 256 459 262 373 276 312 C 289 251 310 207 339 180 C 368 152 411 139 469 139 C 531 139 576 152 603 178 C 630 204 650 246 662 306 C 674 366 680 454 680 571 Z" unicode="p" />
<glyph horiz-adv-x="893" d="M 815 -342 L 649 -342 L 643 -330 L 643 104 C 624 70 594 42 552 21 C 510 0 459 -10 397 -10 C 278 -10 191 35 137 127 C 82 218 55 359 55 551 C 55 748 82 896 138 994 C 194 1092 280 1141 397 1141 C 520 1141 605 1100 651 1020 L 651 1128 L 809 1128 L 809 -268 C 809 -317 811 -342 815 -342 Z M 647 569 C 647 729 631 839 601 897 C 571 955 518 985 442 985 C 365 985 309 952 275 888 C 240 823 223 715 223 565 C 223 398 238 284 270 224 C 301 163 356 133 436 133 C 491 133 534 145 564 171 C 594 197 615 235 628 287 C 640 338 647 432 647 569 Z" unicode="q" />
<glyph horiz-adv-x="641" d="M 633 1130 L 633 958 C 597 970 545 977 477 977 C 411 977 358 953 319 906 C 279 858 260 795 260 715 L 260 0 L 92 0 L 92 1126 L 258 1126 L 258 981 C 267 1027 295 1066 342 1098 C 389 1129 444 1145 506 1145 C 563 1145 605 1140 633 1130 Z" unicode="r" />
<glyph horiz-adv-x="815" d="M 766 305 C 766 202 735 123 675 68 C 615 13 529 -14 418 -14 C 306 -14 222 3 164 38 C 106 72 70 125 57 197 C 51 224 49 271 49 338 L 213 338 L 213 321 C 213 261 219 221 232 199 C 244 177 267 160 299 148 C 331 136 371 131 418 131 C 542 131 604 186 604 297 C 604 339 591 375 566 404 C 540 432 496 460 432 487 L 283 551 C 203 583 145 624 110 674 C 74 724 57 788 57 868 C 57 950 88 1017 150 1069 C 212 1121 293 1147 395 1147 C 485 1147 559 1129 617 1095 C 675 1061 711 1012 727 950 C 733 926 737 881 737 815 L 737 784 L 575 784 L 575 836 L 573 889 C 564 925 545 952 516 968 C 487 984 446 993 393 993 C 278 993 221 944 221 848 C 221 808 232 774 255 748 C 277 722 316 697 371 674 L 528 608 C 617 569 679 527 714 481 C 748 435 766 376 766 305 Z" unicode="s" />
<glyph horiz-adv-x="549" d="M 520 975 L 301 975 L 301 256 C 301 214 308 184 324 167 C 340 149 370 141 414 141 C 443 141 476 143 512 147 L 512 6 C 479 -3 424 -8 348 -8 C 274 -8 218 11 182 49 C 145 87 127 143 127 215 L 127 975 L 2 975 L 2 1126 L 125 1126 C 125 1126 128 1193 133 1327 L 297 1333 L 297 1126 L 520 1126 L 520 975 Z" unicode="t" />
<glyph horiz-adv-x="866" d="M 784 0 L 625 0 L 618 106 C 600 69 568 40 520 19 C 472 -1 421 -12 365 -12 C 278 -12 210 12 161 60 C 112 108 88 177 88 266 L 88 1016 L 86 1126 L 254 1126 L 256 1020 L 256 305 C 256 191 310 135 418 135 C 476 135 523 150 558 182 C 592 213 610 257 610 315 L 610 1126 L 780 1126 L 780 158 C 780 63 781 10 784 0 Z" unicode="u" />
<glyph horiz-adv-x="840" d="M 831 1126 L 524 0 L 317 0 L 8 1126 L 182 1126 L 424 180 L 662 1126 L 831 1126 Z" unicode="v" />
<glyph horiz-adv-x="1315" d="M 1313 1126 L 1042 0 L 844 0 C 738 480 679 753 668 817 C 662 859 659 913 659 981 C 657 925 655 875 651 832 C 647 788 589 511 479 0 L 279 0 L 8 1126 L 178 1126 L 387 168 L 571 1126 L 756 1126 L 948 168 L 1145 1126 L 1313 1126 Z" unicode="w" />
<glyph horiz-adv-x="799" d="M 406 733 L 614 1126 L 788 1126 L 485 578 L 795 0 L 618 0 L 399 414 L 178 0 L 4 0 L 319 571 L 23 1126 L 199 1126 L 406 733 Z" unicode="x" />
<glyph horiz-adv-x="840" d="M 831 1126 L 387 -342 L 219 -342 L 330 10 L 8 1126 L 180 1126 L 414 233 L 662 1126 L 831 1126 Z" unicode="y" />
<glyph horiz-adv-x="731" d="M 702 0 L 37 0 L 37 147 L 514 975 L 45 975 L 45 1126 L 688 1126 L 688 973 L 211 150 L 702 150 L 702 0 Z" unicode="z" />
<glyph horiz-adv-x="676" d="M 623 -334 L 477 -334 C 397 -334 335 -311 291 -265 C 247 -219 225 -151 225 -63 C 225 -15 231 66 243 182 C 254 297 260 381 260 434 C 260 586 193 662 61 662 L 61 813 C 129 814 179 832 212 867 C 245 902 262 956 262 1030 C 262 1060 256 1115 244 1193 C 231 1271 225 1332 225 1376 C 225 1452 247 1513 291 1558 C 335 1603 396 1626 473 1626 L 623 1626 L 623 1481 L 587 1482 C 514 1482 462 1469 431 1445 C 400 1420 385 1379 385 1321 C 385 1298 390 1245 402 1163 C 412 1086 418 1031 418 997 C 418 919 403 859 373 816 C 343 772 300 747 244 741 C 300 735 343 710 373 665 C 403 619 418 555 418 471 C 418 422 412 343 402 233 C 390 115 385 27 385 -31 C 385 -86 399 -125 428 -148 C 457 -171 506 -183 576 -183 L 623 -182 L 623 -334 Z" unicode="{" />
<glyph horiz-adv-x="457" d="M 299 -410 L 160 -410 L 160 1638 L 299 1638 L 299 -410 Z" unicode="|" />
<glyph horiz-adv-x="676" d="M 49 -334 L 49 -182 L 97 -183 C 165 -183 214 -171 244 -148 C 274 -125 289 -86 289 -31 C 289 13 282 101 270 233 C 259 343 254 422 254 471 C 254 553 269 617 299 663 C 329 709 373 735 430 741 C 373 747 329 773 299 817 C 269 861 254 921 254 997 C 254 1035 259 1090 271 1163 C 283 1245 289 1295 289 1315 C 289 1375 273 1418 243 1444 C 212 1469 159 1482 85 1482 L 49 1481 L 49 1626 L 199 1626 C 276 1626 337 1603 382 1559 C 426 1514 449 1453 449 1376 C 449 1332 443 1271 431 1193 C 418 1115 412 1060 412 1030 C 412 957 428 903 460 868 C 492 832 542 814 610 813 L 610 662 C 479 662 414 586 414 434 C 414 381 420 297 432 182 C 443 66 449 -15 449 -63 C 449 -151 427 -218 383 -264 C 339 -310 277 -334 197 -334 L 49 -334 Z" unicode="}" />
<glyph horiz-adv-x="852" d="M 250 834 C 184 834 147 769 139 641 L 8 664 C 14 772 37 853 78 907 C 119 961 175 989 246 989 C 284 989 320 979 352 961 C 384 942 419 909 455 862 L 488 819 C 526 767 566 741 606 741 C 640 741 666 756 686 788 C 706 820 717 864 721 920 L 842 891 C 835 796 813 722 775 669 C 737 616 682 590 612 590 C 567 590 528 600 494 621 C 460 641 419 684 371 750 C 347 780 326 802 308 815 C 290 827 270 834 250 834 Z" unicode="~" />
<glyph horiz-adv-x="567" d="M 371 713 L 528 713 L 528 571 L 373 571 L 373 -12 L 285 -201 L 203 -12 L 203 571 L 39 571 L 39 713 L 203 713 L 203 977 L 39 977 L 39 1122 L 203 1122 L 201 1319 L 201 1626 L 375 1626 L 375 1320 L 373 1122 L 528 1122 L 528 977 L 371 977 L 371 713 Z" unicode="‡" />
<glyph horiz-adv-x="1065" d="M 537 504 C 387 504 269 545 183 627 C 97 709 53 821 51 965 L 50 1068 L 50 1133 L 51 1198 C 56 1337 101 1445 185 1523 C 269 1601 385 1640 532 1640 C 684 1640 803 1598 888 1515 C 972 1431 1015 1308 1015 1146 L 1015 1025 L 1014 965 C 1010 819 966 706 883 625 C 800 544 685 504 537 504 Z M 945 1042 L 945 1153 L 944 1196 C 940 1315 902 1406 831 1470 C 759 1533 660 1565 532 1565 C 404 1565 304 1533 232 1469 C 160 1405 123 1316 121 1200 L 120 1143 L 120 1083 L 121 991 C 123 857 160 755 232 683 C 303 611 403 575 532 575 C 623 575 700 592 762 626 C 824 660 870 709 900 774 C 930 838 945 928 945 1042 Z M 438 975 L 438 723 L 307 723 L 307 1384 L 594 1384 C 644 1384 685 1375 717 1358 C 749 1341 772 1316 786 1284 C 800 1251 807 1218 807 1184 C 807 1142 800 1105 787 1071 C 774 1037 752 1013 722 998 C 691 982 657 975 621 975 L 438 975 Z M 676 1176 C 676 1202 667 1226 651 1246 C 634 1266 610 1276 580 1276 L 438 1276 L 438 1077 L 588 1077 C 614 1077 633 1082 645 1092 C 656 1102 664 1115 669 1129 C 673 1143 676 1158 676 1176 Z" unicode="℗" />
<glyph horiz-adv-x="471" d="M 346 657 L 121 657 L 121 948 L 346 948 L 346 657 Z" unicode="∙" />
<glyph horiz-adv-x="1536" d="M 1072 396 C 1000 396 939 411 890 441 C 841 471 800 521 767 591 C 729 531 682 483 626 448 C 569 413 507 396 440 396 C 336 396 252 433 190 508 C 127 582 96 682 96 808 C 96 925 133 1022 208 1100 C 282 1177 369 1216 468 1216 C 540 1216 601 1201 653 1172 C 704 1143 747 1096 781 1030 C 851 1154 957 1216 1100 1216 C 1198 1216 1280 1181 1346 1112 C 1411 1042 1444 945 1444 820 C 1444 700 1409 599 1340 518 C 1270 436 1181 396 1072 396 Z M 472 1048 C 408 1048 356 1026 316 982 C 276 938 256 874 256 792 C 256 709 271 648 302 610 C 332 571 381 552 448 552 C 565 552 649 636 700 806 C 674 895 643 958 606 994 C 569 1030 524 1048 472 1048 Z M 1072 556 C 1128 556 1176 579 1218 626 C 1259 672 1280 736 1280 816 C 1280 882 1264 940 1234 988 C 1203 1036 1152 1060 1080 1060 C 1024 1060 979 1041 946 1004 C 912 967 880 900 850 803 C 858 702 883 636 925 604 C 966 572 1015 556 1072 556 Z" unicode="∞" />
<glyph horiz-adv-x="1071" d="M 1049 1630 L 547 -27 L 313 -27 L 27 659 L 205 659 L 422 129 L 866 1630 L 1049 1630 Z" unicode="√" />
<glyph horiz-adv-x="199" d="" unicode=" " />
<glyph horiz-adv-x="430" d="M 121 1630 L 307 1630 L 307 1352 L 121 1352 L 121 1630 Z M 117 -8 L 137 1237 L 293 1237 L 313 -8 L 117 -8 Z" unicode="¡" />
<glyph horiz-adv-x="856" d="M 393 1370 L 393 1509 L 504 1509 L 504 1370 C 587 1364 653 1342 702 1304 C 751 1266 783 1217 799 1157 C 815 1096 823 1028 823 952 L 662 952 C 662 1042 650 1108 626 1148 C 602 1188 562 1215 504 1227 L 504 371 C 574 383 620 420 643 481 C 645 489 648 500 651 514 C 653 528 658 569 664 637 L 823 637 C 819 580 816 541 812 521 C 808 500 804 481 800 465 C 795 449 790 434 784 422 C 758 362 724 317 680 287 C 636 257 577 239 504 233 L 504 74 L 393 74 L 393 233 C 309 244 242 271 193 314 C 144 356 110 421 91 509 C 72 597 63 704 63 832 C 63 930 72 1015 91 1088 C 109 1161 132 1215 159 1249 C 185 1283 218 1310 258 1331 C 298 1351 343 1364 393 1370 Z M 393 1223 C 362 1215 336 1201 315 1183 C 293 1164 277 1135 266 1095 C 255 1055 248 1012 244 968 C 240 923 238 867 238 801 C 238 695 243 612 254 553 C 265 493 282 451 304 425 C 326 399 355 382 393 373 L 393 1223 Z" unicode="¢" />
<glyph horiz-adv-x="915" d="M 201 795 C 170 866 149 923 137 965 C 125 1007 116 1052 110 1102 C 103 1151 100 1206 100 1268 C 100 1387 130 1479 191 1543 C 252 1607 343 1640 465 1640 C 577 1640 664 1614 726 1564 C 788 1513 824 1433 834 1323 C 838 1271 840 1196 840 1098 L 840 1055 L 664 1055 L 657 1309 C 651 1367 632 1411 600 1440 C 568 1468 522 1483 462 1483 C 398 1483 352 1464 324 1426 C 295 1388 281 1328 281 1245 C 281 1171 286 1104 298 1044 C 310 983 335 900 375 795 L 752 795 L 752 645 L 422 645 C 438 592 446 542 446 494 C 446 441 438 390 422 342 C 406 294 383 253 354 219 C 324 185 294 164 264 154 L 856 154 L 856 0 L 66 0 L 66 164 C 132 190 184 231 222 287 C 259 342 278 407 278 482 C 278 535 268 589 250 645 L 84 645 L 84 795 L 201 795 Z" unicode="£" />
<glyph horiz-adv-x="1152" d="M 1056 392 L 940 284 L 740 500 C 692 468 636 452 572 452 C 510 452 456 468 408 500 L 208 284 L 92 392 L 300 608 C 281 634 268 660 262 686 C 255 711 252 742 252 780 C 252 848 268 906 300 952 L 92 1168 L 208 1276 L 408 1060 C 456 1092 510 1108 572 1108 C 636 1108 692 1092 740 1060 L 944 1276 L 1060 1156 L 852 952 C 870 925 883 898 890 872 C 896 845 900 814 900 780 C 900 716 882 658 848 608 L 1056 392 Z M 748 780 C 748 833 731 876 698 910 C 664 943 622 960 572 960 C 521 960 480 943 448 910 C 416 876 400 833 400 780 C 400 726 416 684 450 652 C 483 620 524 604 572 604 C 625 604 668 620 700 652 C 732 684 748 726 748 780 Z" unicode="¤" />
<glyph horiz-adv-x="1038" d="M 422 399 L 68 399 L 68 516 L 422 516 L 422 594 L 2 1628 L 188 1628 C 253 1462 323 1281 398 1083 C 472 885 510 776 510 756 C 510 790 623 1080 850 1628 L 1036 1628 L 598 600 L 598 516 L 956 516 L 956 399 L 598 399 L 598 319 L 956 319 L 956 203 L 600 203 L 600 0 L 420 0 L 420 203 L 68 203 L 68 319 L 422 319 L 422 399 Z" unicode="¥" />
<glyph horiz-adv-x="457" d="M 299 731 L 158 731 L 158 1638 L 299 1638 L 299 731 Z M 299 -410 L 158 -410 L 158 463 L 299 463 L 299 -410 Z" unicode="¦" />
<glyph horiz-adv-x="762" d="M 176 1116 C 144 1137 120 1163 106 1194 C 92 1225 84 1263 82 1309 L 82 1419 C 84 1485 111 1537 163 1577 C 215 1616 285 1636 375 1636 C 555 1636 653 1559 668 1405 L 670 1346 L 670 1284 L 539 1284 L 539 1339 L 537 1393 C 530 1475 479 1516 383 1516 C 281 1516 227 1479 221 1405 L 220 1388 L 220 1361 L 221 1317 C 223 1279 235 1250 257 1230 C 279 1209 327 1185 402 1157 C 500 1120 565 1090 597 1068 C 629 1045 655 1014 673 976 C 691 937 700 895 700 849 C 700 799 694 756 682 718 C 670 680 652 650 630 629 C 607 608 585 595 563 590 C 663 540 717 462 725 354 L 726 293 L 726 254 C 726 162 699 93 646 48 C 592 2 510 -20 399 -20 C 315 -20 249 -9 200 11 C 151 31 114 63 90 107 C 65 150 53 211 53 289 L 53 352 L 213 352 L 213 297 L 215 242 C 217 192 232 158 259 138 C 286 118 332 109 397 109 C 461 109 507 120 535 142 C 562 164 577 196 580 240 L 581 260 L 581 292 L 580 342 C 576 384 561 418 534 444 C 507 469 468 492 416 514 L 188 612 C 157 629 131 649 111 673 C 91 697 76 724 67 754 C 57 784 53 825 53 877 C 53 938 63 989 84 1029 C 105 1069 136 1098 176 1116 Z M 471 637 C 496 637 518 653 537 685 C 556 717 566 753 566 794 C 566 822 562 849 556 877 C 550 904 543 922 535 930 C 507 954 472 976 430 994 C 388 1012 336 1033 274 1057 C 251 1053 231 1034 215 1002 C 199 969 191 936 191 902 C 191 876 194 850 201 824 C 207 798 215 779 225 768 C 265 729 347 685 471 637 Z" unicode="§" />
<glyph horiz-adv-x="700" d="M 573 1206 L 418 1206 L 418 1423 L 573 1423 L 573 1206 Z M 283 1206 L 127 1206 L 127 1423 L 283 1423 L 283 1206 Z" unicode="¨" />
<glyph horiz-adv-x="1065" d="M 537 504 C 387 504 269 545 183 627 C 97 709 53 821 51 965 L 50 1068 L 50 1133 L 51 1198 C 56 1337 101 1445 185 1523 C 269 1601 385 1640 532 1640 C 684 1640 803 1598 888 1515 C 972 1431 1015 1308 1015 1146 L 1015 1025 L 1014 965 C 1010 819 966 706 883 625 C 800 544 685 504 537 504 Z M 945 1042 L 945 1153 L 944 1196 C 940 1315 902 1406 831 1470 C 759 1533 660 1565 532 1565 C 404 1565 304 1533 232 1469 C 160 1405 123 1316 121 1200 L 120 1143 L 120 1083 L 121 991 C 123 858 160 755 230 683 C 300 611 401 575 532 575 C 800 575 937 713 944 991 L 945 1042 Z M 797 979 L 788 866 C 780 812 754 772 709 744 C 664 716 605 702 532 702 C 483 702 441 708 407 721 C 372 733 343 753 321 779 C 298 805 283 836 276 873 C 269 910 266 970 266 1053 C 266 1152 270 1218 280 1252 C 290 1286 306 1315 330 1339 C 353 1363 382 1381 418 1394 C 454 1406 495 1413 541 1413 C 583 1413 619 1407 651 1396 C 683 1385 709 1369 731 1348 C 753 1326 769 1301 780 1271 C 791 1241 797 1196 797 1135 L 670 1135 C 670 1168 668 1196 666 1219 C 652 1270 611 1296 541 1296 C 457 1296 410 1261 399 1192 C 395 1170 393 1123 393 1053 L 397 926 C 402 886 416 856 439 838 C 462 820 495 811 539 811 C 590 811 625 822 644 845 C 662 868 672 913 672 979 L 797 979 Z" unicode="©" />
<glyph horiz-adv-x="788" d="M 723 567 L 563 567 C 556 622 553 660 553 680 C 529 637 496 606 454 587 C 412 568 359 559 297 559 C 211 559 146 579 101 621 C 56 663 34 721 34 795 L 34 828 L 37 905 C 44 1001 84 1074 158 1125 C 232 1176 329 1202 450 1202 L 549 1202 L 550 1238 L 550 1333 C 550 1383 544 1418 532 1440 C 520 1462 503 1477 480 1487 C 456 1496 426 1501 389 1501 C 358 1501 330 1495 305 1483 C 279 1471 260 1453 248 1429 C 236 1405 229 1381 229 1356 L 229 1272 L 74 1272 L 74 1331 C 76 1440 105 1520 161 1571 C 217 1621 295 1647 395 1647 C 595 1647 699 1565 709 1403 L 712 1229 L 712 1135 L 709 750 C 709 649 713 588 723 567 Z M 748 365 L 43 365 L 43 502 L 748 502 L 748 365 Z M 509 1080 C 405 1080 328 1065 278 1037 C 228 1008 202 959 199 889 C 199 870 199 848 199 824 C 199 800 203 778 211 760 C 229 712 275 688 350 688 C 416 688 466 708 499 750 C 532 792 549 861 549 958 L 551 983 L 549 1079 L 509 1080 Z" unicode="ª" />
<glyph horiz-adv-x="872" d="M 817 236 L 428 641 L 428 764 L 817 1171 L 817 958 L 571 702 L 817 451 L 817 236 Z M 453 236 L 63 641 L 63 764 L 453 1171 L 453 958 L 209 702 L 453 451 L 453 236 Z" unicode="«" />
<glyph horiz-adv-x="1536" d="M 1116 352 L 1116 728 L 212 728 L 212 920 L 1296 920 L 1296 352 L 1116 352 Z" unicode="¬" />
<glyph horiz-adv-x="664" d="M 641 702 L 25 702 L 25 881 L 641 881 L 641 702 Z" unicode="­" />
<glyph horiz-adv-x="1065" d="M 537 504 C 387 504 269 545 183 627 C 97 709 53 821 51 965 L 50 1068 L 50 1133 L 51 1198 C 56 1337 101 1445 185 1523 C 269 1601 385 1640 532 1640 C 684 1640 803 1598 888 1515 C 972 1431 1015 1308 1015 1146 L 1015 1025 L 1014 965 C 1010 819 966 706 883 625 C 800 544 685 504 537 504 Z M 945 1042 L 945 1153 L 944 1196 C 940 1315 902 1406 831 1470 C 759 1533 660 1565 532 1565 C 404 1565 304 1533 232 1469 C 160 1405 123 1316 121 1200 L 120 1143 L 120 1083 L 121 991 C 123 857 160 755 232 683 C 303 611 403 575 532 575 C 623 575 700 592 762 626 C 824 660 870 709 900 774 C 930 838 945 928 945 1042 Z M 784 723 L 651 723 L 539 983 L 430 983 L 430 723 L 299 723 L 299 1384 L 578 1384 C 625 1384 664 1375 696 1359 C 727 1343 750 1319 765 1289 C 780 1258 788 1226 788 1192 C 788 1161 783 1131 774 1102 C 765 1073 750 1050 729 1034 C 707 1017 685 1006 662 1001 L 784 723 Z M 653 1180 C 653 1214 645 1239 630 1255 C 614 1270 575 1278 511 1278 L 430 1278 L 430 1083 L 486 1083 L 594 1087 C 633 1091 653 1122 653 1180 Z" unicode="®" />
<glyph horiz-adv-x="700" d="M 586 1241 L 113 1241 L 113 1360 L 586 1360 L 586 1241 Z" unicode="¯" />
<glyph horiz-adv-x="506" d="M 252 1544 C 313 1544 364 1522 406 1478 C 448 1434 469 1383 469 1323 C 469 1261 448 1208 406 1166 C 364 1123 312 1102 252 1102 C 193 1102 143 1123 101 1166 C 59 1208 39 1261 39 1323 C 39 1383 60 1435 102 1479 C 144 1522 194 1544 252 1544 Z M 252 1430 C 224 1430 199 1419 177 1399 C 155 1379 145 1353 145 1323 C 145 1291 155 1265 177 1245 C 199 1224 224 1214 252 1214 C 284 1214 310 1224 330 1245 C 350 1266 360 1292 360 1323 C 360 1353 350 1378 330 1399 C 310 1419 284 1430 252 1430 Z" unicode="°" />
<glyph horiz-adv-x="1536" d="M 672 352 L 672 764 L 200 764 L 200 936 L 672 936 L 672 1352 L 864 1352 L 864 936 L 1340 936 L 1340 764 L 864 764 L 864 352 L 672 352 Z M 204 24 L 204 216 L 1336 216 L 1336 24 L 204 24 Z" unicode="±" />
<glyph horiz-adv-x="686" d="M 612 795 L 78 795 L 78 893 C 116 945 173 1004 247 1070 C 326 1138 377 1186 399 1212 C 421 1238 439 1264 452 1291 C 464 1317 471 1346 471 1378 L 471 1421 C 471 1460 461 1488 441 1506 C 421 1523 387 1532 340 1532 C 304 1532 277 1525 259 1511 C 241 1497 228 1474 219 1442 C 215 1426 213 1396 213 1352 L 84 1352 L 84 1376 C 84 1549 174 1636 354 1636 C 518 1636 602 1570 606 1440 C 606 1368 600 1317 589 1287 C 578 1257 561 1227 538 1197 C 515 1167 471 1121 406 1061 C 334 994 284 942 254 905 L 612 905 L 612 795 Z" unicode="²" />
<glyph horiz-adv-x="694" d="M 430 1217 C 560 1210 629 1161 637 1069 L 639 1028 C 639 964 629 916 609 882 C 589 848 557 823 515 807 C 473 790 418 782 352 782 C 263 782 196 796 150 826 C 104 855 79 896 76 948 L 72 1038 L 72 1049 L 203 1049 L 203 952 C 204 924 217 904 243 893 C 268 882 304 877 352 877 C 402 877 438 884 462 900 C 485 915 498 940 500 975 L 500 1053 C 498 1089 486 1114 464 1128 C 441 1142 401 1150 344 1153 L 321 1153 L 219 1155 L 219 1257 L 342 1260 C 378 1264 407 1270 427 1280 C 447 1289 460 1302 468 1319 C 476 1336 480 1374 480 1432 C 480 1470 470 1496 452 1512 C 433 1528 400 1536 354 1536 C 273 1536 229 1510 223 1460 L 223 1374 L 96 1374 C 96 1454 105 1510 124 1542 C 142 1573 170 1596 208 1612 C 246 1628 296 1636 358 1636 C 518 1636 601 1580 608 1468 L 610 1433 L 610 1397 C 608 1353 601 1320 589 1298 C 577 1276 559 1258 535 1245 C 510 1232 475 1223 430 1217 Z" unicode="³" />
<glyph horiz-adv-x="700" d="M 221 1206 L 375 1470 L 561 1470 L 383 1206 L 221 1206 Z" unicode="´" />
<glyph horiz-adv-x="1408" d="M 252 -424 C 214 -424 186 -413 168 -392 C 149 -370 140 -333 140 -280 C 140 -176 145 -49 156 100 C 166 233 172 309 172 328 L 176 356 L 176 1176 L 368 1176 L 368 320 C 368 258 395 210 450 176 C 504 141 564 124 628 124 C 716 124 792 146 858 190 C 923 234 973 297 1008 380 L 1008 1176 L 1200 1176 L 1200 308 L 1220 0 L 1056 0 L 1020 176 C 974 104 913 50 836 14 C 758 -22 670 -40 572 -40 C 537 -40 494 -31 444 -14 C 393 3 353 28 324 60 C 324 1 333 -56 352 -112 C 370 -168 380 -218 380 -264 C 380 -370 337 -424 252 -424 Z" unicode="µ" />
<glyph horiz-adv-x="782" d="M 723 1632 L 723 -215 L 645 -215 L 645 1497 L 584 1497 L 584 -215 L 504 -215 L 504 537 C 488 513 463 494 428 479 C 392 464 354 457 313 457 C 241 457 184 475 142 511 C 100 547 72 606 58 688 C 44 770 37 888 37 1042 C 37 1202 43 1316 57 1384 C 71 1452 89 1503 112 1537 C 134 1570 163 1595 198 1613 C 233 1631 273 1640 319 1640 C 360 1640 398 1632 433 1618 C 467 1604 492 1585 506 1563 L 532 1632 L 723 1632 Z M 504 1386 C 502 1414 490 1437 467 1455 C 443 1473 417 1483 389 1483 C 340 1483 305 1470 284 1446 C 262 1421 246 1369 234 1291 C 222 1212 217 1131 217 1049 C 217 985 219 916 224 844 C 229 771 236 721 245 693 C 253 665 270 643 295 629 C 320 615 348 608 379 608 C 414 608 443 617 465 636 C 487 654 500 679 502 711 L 504 843 L 504 1386 Z" unicode="¶" />
<glyph horiz-adv-x="471" d="M 346 657 L 121 657 L 121 948 L 346 948 L 346 657 Z" unicode="·" />
<glyph horiz-adv-x="700" d="M 432 -203 C 432 -176 425 -154 412 -138 C 398 -121 376 -106 344 -94 C 306 -80 287 -49 287 0 L 395 0 C 395 -26 405 -41 426 -47 C 470 -58 505 -79 530 -111 C 554 -142 567 -179 567 -223 C 567 -271 547 -310 507 -340 C 467 -369 413 -384 347 -384 C 307 -384 263 -377 215 -365 L 215 -268 C 255 -279 290 -285 320 -285 C 353 -285 380 -278 401 -264 C 421 -250 432 -229 432 -203 Z" unicode="¸" />
<glyph horiz-adv-x="586" d="M 395 795 L 266 795 L 266 1450 L 39 1415 L 39 1518 C 81 1518 132 1530 192 1556 C 252 1581 289 1606 303 1630 L 395 1630 L 395 795 Z" unicode="¹" />
<glyph horiz-adv-x="819" d="M 770 1106 C 770 989 755 886 725 798 C 695 709 655 646 606 610 C 556 573 490 555 408 555 C 322 555 252 576 198 618 C 143 660 104 726 81 815 C 58 903 47 1000 47 1106 C 47 1231 62 1336 94 1420 C 126 1504 165 1562 213 1596 C 261 1630 326 1647 410 1647 C 464 1647 510 1639 550 1625 C 589 1611 622 1589 649 1561 C 675 1532 698 1493 718 1443 C 738 1393 751 1345 759 1301 C 766 1257 770 1192 770 1106 Z M 778 365 L 43 365 L 43 502 L 778 502 L 778 365 Z M 606 1104 C 606 1189 600 1264 588 1328 C 576 1392 557 1437 530 1463 C 502 1488 462 1501 408 1501 C 362 1501 326 1490 299 1469 C 272 1447 250 1408 234 1350 C 217 1292 209 1210 209 1104 C 209 1012 216 932 230 866 C 244 800 264 755 291 732 C 318 709 357 698 408 698 C 446 698 478 705 504 720 C 530 735 549 759 562 791 C 575 823 586 869 594 927 C 602 985 606 1044 606 1104 Z" unicode="º" />
<glyph horiz-adv-x="872" d="M 422 252 L 422 467 L 664 721 L 422 977 L 422 1190 L 811 782 L 811 657 L 422 252 Z M 57 252 L 57 467 L 299 721 L 57 977 L 57 1190 L 446 782 L 446 657 L 57 252 Z" unicode="»" />
<glyph horiz-adv-x="1192" d="M 377 795 L 248 795 L 248 1450 L 18 1415 L 18 1518 C 60 1518 112 1530 172 1556 C 232 1581 269 1606 283 1630 L 377 1630 L 377 795 Z M 899 1628 L 792 1335 L 459 411 L 313 0 L 211 0 L 369 440 C 544 921 686 1317 795 1628 L 899 1628 Z M 1151 221 L 1036 221 L 1036 0 L 911 0 L 911 223 L 547 223 L 547 336 L 897 834 L 1036 834 L 1036 330 L 1151 330 L 1151 221 Z M 911 330 L 911 678 L 670 330 L 911 330 Z" unicode="¼" />
<glyph horiz-adv-x="1178" d="M 371 795 L 242 795 L 242 1450 L 12 1415 L 12 1518 C 54 1518 106 1530 166 1556 C 226 1581 264 1606 279 1630 L 371 1630 L 371 795 Z M 858 1628 L 418 411 L 272 0 L 170 0 L 328 440 C 503 921 645 1317 754 1628 L 858 1628 Z M 1133 0 L 600 0 L 600 98 C 635 147 691 206 769 275 C 850 347 901 395 923 420 C 945 445 962 471 974 498 C 986 524 993 553 993 584 L 993 627 C 993 666 982 694 962 711 C 942 728 908 737 860 737 C 824 737 797 730 780 717 C 763 703 750 680 741 647 C 737 632 735 602 735 557 L 606 557 C 606 607 608 641 614 659 C 639 781 726 842 874 842 C 1038 842 1122 776 1126 645 L 1126 609 L 1124 571 C 1123 525 1111 484 1088 446 C 1064 408 1035 372 1000 336 C 965 300 927 265 887 229 C 846 193 808 153 774 111 L 1133 111 L 1133 0 Z" unicode="½" />
<glyph horiz-adv-x="1313" d="M 381 1217 C 429 1214 469 1206 501 1192 C 532 1178 555 1160 569 1136 C 583 1112 590 1076 590 1028 C 590 962 580 912 560 880 C 540 847 508 822 465 806 C 421 790 367 782 303 782 C 215 782 149 796 103 826 C 57 855 32 896 29 948 L 25 1049 L 154 1049 L 154 952 C 155 924 168 904 194 893 C 219 882 255 877 303 877 C 341 877 371 881 394 889 C 416 897 432 910 441 928 C 450 945 455 973 455 1013 C 455 1054 450 1083 442 1100 C 434 1116 418 1129 396 1137 C 373 1145 339 1151 295 1153 L 273 1153 L 170 1155 L 170 1257 L 295 1260 C 332 1264 361 1271 381 1281 C 401 1291 414 1305 422 1324 C 429 1343 433 1379 433 1432 C 433 1470 423 1496 404 1512 C 385 1528 352 1536 305 1536 C 223 1536 180 1510 176 1460 L 174 1405 L 174 1374 L 47 1374 C 47 1453 56 1509 75 1541 C 94 1573 123 1596 161 1612 C 199 1628 249 1636 311 1636 C 397 1636 460 1620 501 1590 C 541 1560 562 1511 562 1443 C 562 1386 557 1344 548 1316 C 538 1288 521 1267 495 1251 C 469 1235 431 1223 381 1217 Z M 1032 1628 C 748 847 553 304 446 0 L 346 0 C 584 654 778 1196 930 1628 L 1032 1628 Z M 1286 221 L 1171 221 L 1171 0 L 1047 0 L 1047 223 L 682 223 L 682 336 L 1034 834 L 1171 834 L 1171 330 L 1286 330 L 1286 221 Z M 1047 330 L 1047 680 L 805 330 L 1047 330 Z" unicode="¾" />
<glyph horiz-adv-x="838" d="M 367 1628 L 557 1628 L 557 1350 L 367 1350 L 367 1628 Z M 385 1219 L 385 1237 L 543 1237 L 543 1209 C 543 1106 529 1014 502 933 C 474 851 420 762 339 664 C 270 581 233 503 229 430 L 227 357 C 227 276 241 220 271 190 C 300 160 350 145 422 145 C 559 145 629 201 633 314 L 635 424 L 807 424 L 807 381 C 807 313 805 266 801 240 C 787 154 749 90 687 48 C 624 6 534 -14 416 -14 C 327 -14 255 -1 200 24 C 144 49 105 87 81 139 C 57 190 45 261 45 352 L 45 400 C 45 470 57 531 83 583 C 109 635 157 704 228 788 C 280 850 320 917 346 987 C 372 1057 385 1135 385 1219 Z" unicode="¿" />
<glyph horiz-adv-x="993" d="M 274 399 L 186 0 L 2 0 L 397 1628 L 629 1628 L 991 0 L 803 0 L 717 399 L 274 399 Z M 684 563 L 530 1268 L 508 1427 L 481 1268 L 313 563 L 684 563 Z M 667 1616 L 501 1616 L 325 1880 L 511 1880 L 667 1616 Z" unicode="À" />
<glyph horiz-adv-x="993" d="M 274 399 L 186 0 L 2 0 L 397 1628 L 629 1628 L 991 0 L 803 0 L 717 399 L 274 399 Z M 684 563 L 530 1268 L 508 1427 L 481 1268 L 313 563 L 684 563 Z M 326 1616 L 480 1880 L 666 1880 L 488 1616 L 326 1616 Z" unicode="Á" />
<glyph horiz-adv-x="993" d="M 274 399 L 186 0 L 2 0 L 397 1628 L 629 1628 L 991 0 L 803 0 L 717 399 L 274 399 Z M 684 563 L 530 1268 L 508 1427 L 481 1268 L 313 563 L 684 563 Z M 756 1620 L 611 1620 L 496 1780 L 379 1620 L 236 1620 L 402 1883 L 592 1883 L 756 1620 Z" unicode="Â" />
<glyph horiz-adv-x="993" d="M 274 399 L 186 0 L 2 0 L 397 1628 L 629 1628 L 991 0 L 803 0 L 717 399 L 274 399 Z M 684 563 L 530 1268 L 508 1427 L 481 1268 L 313 563 L 684 563 Z M 396 1723 C 376 1723 363 1717 355 1706 C 347 1695 342 1671 340 1633 L 221 1633 C 224 1701 239 1754 267 1793 C 294 1832 333 1852 383 1852 C 436 1852 482 1832 520 1792 C 548 1762 574 1747 597 1747 C 615 1747 628 1751 636 1761 C 644 1770 649 1796 653 1840 L 772 1840 C 768 1769 753 1714 726 1676 C 699 1637 661 1618 612 1618 C 589 1618 566 1621 544 1627 C 522 1633 500 1648 479 1672 C 462 1688 448 1700 436 1709 C 424 1718 411 1723 396 1723 Z" unicode="Ã" />
<glyph horiz-adv-x="993" d="M 274 399 L 186 0 L 2 0 L 397 1628 L 629 1628 L 991 0 L 803 0 L 717 399 L 274 399 Z M 684 563 L 530 1268 L 508 1427 L 481 1268 L 313 563 L 684 563 Z M 719 1616 L 564 1616 L 564 1833 L 719 1833 L 719 1616 Z M 429 1616 L 273 1616 L 273 1833 L 429 1833 L 429 1616 Z" unicode="Ä" />
<glyph horiz-adv-x="993" d="M 391 1599 C 362 1631 348 1669 348 1712 C 348 1756 363 1794 393 1826 C 423 1858 460 1874 506 1874 C 551 1874 589 1858 619 1826 C 649 1794 664 1756 664 1712 C 664 1676 653 1643 633 1614 L 991 0 L 803 0 L 717 399 L 274 399 L 186 0 L 2 0 L 391 1599 Z M 506 1782 C 487 1782 471 1775 459 1761 C 446 1747 440 1730 440 1712 C 440 1693 446 1677 459 1663 C 471 1649 487 1642 506 1642 C 523 1642 538 1649 551 1663 C 564 1677 571 1693 571 1712 C 571 1730 564 1747 551 1761 C 538 1775 523 1782 506 1782 Z M 684 563 L 530 1274 C 527 1284 520 1338 508 1434 L 481 1274 L 313 563 L 684 563 Z" unicode="Å" />
<glyph horiz-adv-x="1368" d="M 1339 1628 L 1339 1456 L 799 1456 L 799 905 L 1305 905 L 1305 735 L 799 735 L 799 172 L 1341 172 L 1341 0 L 621 0 L 621 387 L 303 387 L 180 0 L -8 0 L 537 1628 L 1339 1628 Z M 621 1413 L 569 1214 L 356 547 L 621 547 L 621 1413 Z" unicode="Æ" />
<glyph horiz-adv-x="1042" d="M 63 823 C 63 1037 78 1202 108 1316 C 138 1430 189 1512 261 1564 C 333 1616 428 1642 547 1642 C 646 1642 730 1621 800 1580 C 870 1538 918 1481 944 1407 C 978 1311 995 1197 995 1067 L 811 1067 C 811 1123 805 1183 794 1245 C 782 1307 766 1353 746 1382 C 726 1410 699 1432 665 1446 C 631 1460 591 1468 545 1468 C 483 1468 433 1457 395 1436 C 357 1415 328 1381 309 1333 C 289 1285 275 1218 267 1133 C 258 1048 254 944 254 821 C 254 732 259 637 269 537 C 279 437 291 361 305 311 C 319 260 347 220 389 191 C 430 161 483 147 549 147 C 648 147 717 180 756 247 C 795 314 815 416 815 553 L 997 553 C 997 440 982 340 952 253 C 922 166 877 101 815 58 C 753 15 677 -8 588 -14 C 591 -32 600 -43 616 -47 C 659 -57 693 -78 719 -109 C 745 -139 758 -177 758 -223 C 758 -271 738 -310 698 -340 C 658 -369 604 -384 538 -384 C 498 -384 454 -377 406 -365 L 406 -268 C 446 -279 481 -285 511 -285 C 544 -285 571 -278 592 -264 C 612 -250 623 -229 623 -203 C 623 -176 616 -154 603 -138 C 589 -121 567 -106 535 -94 C 501 -82 481 -55 477 -14 C 406 -7 346 10 297 39 C 247 68 205 112 169 172 C 133 231 107 317 89 431 C 71 544 63 675 63 823 Z" unicode="Ç" />
<glyph horiz-adv-x="918" d="M 864 0 L 117 0 L 117 1628 L 860 1628 L 860 1456 L 297 1456 L 297 905 L 827 905 L 827 735 L 297 735 L 297 172 L 864 172 L 864 0 Z M 630 1616 L 464 1616 L 288 1880 L 474 1880 L 630 1616 Z" unicode="È" />
<glyph horiz-adv-x="918" d="M 864 0 L 117 0 L 117 1628 L 860 1628 L 860 1456 L 297 1456 L 297 905 L 827 905 L 827 735 L 297 735 L 297 172 L 864 172 L 864 0 Z M 289 1616 L 443 1880 L 629 1880 L 451 1616 L 289 1616 Z" unicode="É" />
<glyph horiz-adv-x="918" d="M 864 0 L 117 0 L 117 1628 L 860 1628 L 860 1456 L 297 1456 L 297 905 L 827 905 L 827 735 L 297 735 L 297 172 L 864 172 L 864 0 Z M 719 1620 L 574 1620 L 459 1780 L 342 1620 L 199 1620 L 365 1883 L 555 1883 L 719 1620 Z" unicode="Ê" />
<glyph horiz-adv-x="918" d="M 864 0 L 117 0 L 117 1628 L 860 1628 L 860 1456 L 297 1456 L 297 905 L 827 905 L 827 735 L 297 735 L 297 172 L 864 172 L 864 0 Z M 682 1616 L 527 1616 L 527 1833 L 682 1833 L 682 1616 Z M 392 1616 L 236 1616 L 236 1833 L 392 1833 L 392 1616 Z" unicode="Ë" />
<glyph horiz-adv-x="418" d="M 303 0 L 117 0 L 117 1628 L 303 1628 L 303 0 Z M 381 1616 L 215 1616 L 39 1880 L 225 1880 L 381 1616 Z" unicode="Ì" />
<glyph horiz-adv-x="418" d="M 303 0 L 117 0 L 117 1628 L 303 1628 L 303 0 Z M 40 1616 L 194 1880 L 380 1880 L 202 1616 L 40 1616 Z" unicode="Í" />
<glyph horiz-adv-x="418" d="M 303 0 L 117 0 L 117 1628 L 303 1628 L 303 0 Z M 470 1620 L 325 1620 L 210 1780 L 93 1620 L -50 1620 L 116 1883 L 306 1883 L 470 1620 Z" unicode="Î" />
<glyph horiz-adv-x="418" d="M 303 0 L 117 0 L 117 1628 L 303 1628 L 303 0 Z M 433 1616 L 278 1616 L 278 1833 L 433 1833 L 433 1616 Z M 143 1616 L -13 1616 L -13 1833 L 143 1833 L 143 1616 Z" unicode="Ï" />
<glyph horiz-adv-x="1036" d="M 117 723 L 29 723 L 29 907 L 117 907 L 117 1628 L 561 1628 C 727 1628 840 1573 901 1464 C 925 1422 943 1346 957 1238 C 970 1129 977 998 977 844 C 977 480 953 256 907 172 C 872 109 828 65 776 39 C 723 13 658 0 582 0 L 117 0 L 117 723 Z M 299 907 L 537 907 L 537 723 L 299 723 L 299 166 L 559 166 C 608 166 648 173 680 189 C 712 204 737 229 756 264 C 770 292 781 364 788 479 C 795 594 799 716 799 844 C 799 932 794 1029 786 1137 C 778 1244 766 1312 752 1341 C 732 1380 706 1409 674 1427 C 642 1445 601 1454 551 1454 L 299 1454 L 299 907 Z" unicode="Ð" />
<glyph horiz-adv-x="1061" d="M 948 0 L 743 0 L 287 1245 L 287 0 L 117 0 L 117 1628 L 328 1628 L 776 395 L 776 1628 L 948 1628 L 948 0 Z M 430 1723 C 410 1723 397 1717 389 1706 C 381 1695 376 1671 374 1633 L 255 1633 C 258 1701 273 1754 301 1793 C 328 1832 367 1852 417 1852 C 470 1852 516 1832 554 1792 C 582 1762 608 1747 631 1747 C 649 1747 662 1751 670 1761 C 678 1770 683 1796 687 1840 L 806 1840 C 802 1769 787 1714 760 1676 C 733 1637 695 1618 646 1618 C 623 1618 600 1621 578 1627 C 556 1633 534 1648 513 1672 C 496 1688 482 1700 470 1709 C 458 1718 445 1723 430 1723 Z" unicode="Ñ" />
<glyph horiz-adv-x="1071" d="M 537 1642 C 654 1642 748 1615 818 1563 C 888 1511 938 1430 967 1322 C 995 1213 1010 1046 1010 821 C 1010 593 994 423 963 311 C 931 199 882 117 815 64 C 748 10 655 -16 537 -16 C 366 -16 244 41 172 156 C 99 271 63 491 63 817 C 63 987 73 1127 93 1236 C 113 1345 141 1426 178 1479 C 214 1532 264 1572 326 1600 C 388 1628 458 1642 537 1642 Z M 537 143 C 594 143 643 155 683 181 C 723 207 753 246 771 298 C 789 350 803 419 812 506 C 820 592 825 695 825 815 C 825 935 819 1045 807 1147 C 795 1248 779 1317 757 1355 C 735 1392 704 1420 666 1440 C 628 1460 585 1470 537 1470 C 488 1470 445 1460 408 1442 C 371 1423 342 1394 321 1356 C 299 1318 282 1248 270 1148 C 258 1048 252 935 252 811 C 252 687 256 581 265 491 C 274 401 288 334 306 288 C 324 242 353 206 393 181 C 433 155 481 143 537 143 Z M 706 1616 L 540 1616 L 364 1880 L 550 1880 L 706 1616 Z" unicode="Ò" />
<glyph horiz-adv-x="1071" d="M 537 1642 C 654 1642 748 1615 818 1563 C 888 1511 938 1430 967 1322 C 995 1213 1010 1046 1010 821 C 1010 593 994 423 963 311 C 931 199 882 117 815 64 C 748 10 655 -16 537 -16 C 366 -16 244 41 172 156 C 99 271 63 491 63 817 C 63 987 73 1127 93 1236 C 113 1345 141 1426 178 1479 C 214 1532 264 1572 326 1600 C 388 1628 458 1642 537 1642 Z M 537 143 C 594 143 643 155 683 181 C 723 207 753 246 771 298 C 789 350 803 419 812 506 C 820 592 825 695 825 815 C 825 935 819 1045 807 1147 C 795 1248 779 1317 757 1355 C 735 1392 704 1420 666 1440 C 628 1460 585 1470 537 1470 C 488 1470 445 1460 408 1442 C 371 1423 342 1394 321 1356 C 299 1318 282 1248 270 1148 C 258 1048 252 935 252 811 C 252 687 256 581 265 491 C 274 401 288 334 306 288 C 324 242 353 206 393 181 C 433 155 481 143 537 143 Z M 365 1616 L 519 1880 L 705 1880 L 527 1616 L 365 1616 Z" unicode="Ó" />
<glyph horiz-adv-x="1071" d="M 537 1642 C 654 1642 748 1615 818 1563 C 888 1511 938 1430 967 1322 C 995 1213 1010 1046 1010 821 C 1010 593 994 423 963 311 C 931 199 882 117 815 64 C 748 10 655 -16 537 -16 C 366 -16 244 41 172 156 C 99 271 63 491 63 817 C 63 987 73 1127 93 1236 C 113 1345 141 1426 178 1479 C 214 1532 264 1572 326 1600 C 388 1628 458 1642 537 1642 Z M 537 143 C 594 143 643 155 683 181 C 723 207 753 246 771 298 C 789 350 803 419 812 506 C 820 592 825 695 825 815 C 825 935 819 1045 807 1147 C 795 1248 779 1317 757 1355 C 735 1392 704 1420 666 1440 C 628 1460 585 1470 537 1470 C 488 1470 445 1460 408 1442 C 371 1423 342 1394 321 1356 C 299 1318 282 1248 270 1148 C 258 1048 252 935 252 811 C 252 687 256 581 265 491 C 274 401 288 334 306 288 C 324 242 353 206 393 181 C 433 155 481 143 537 143 Z M 795 1620 L 650 1620 L 535 1780 L 418 1620 L 275 1620 L 441 1883 L 631 1883 L 795 1620 Z" unicode="Ô" />
<glyph horiz-adv-x="1071" d="M 537 1642 C 654 1642 748 1615 818 1563 C 888 1511 938 1430 967 1322 C 995 1213 1010 1046 1010 821 C 1010 593 994 423 963 311 C 931 199 882 117 815 64 C 748 10 655 -16 537 -16 C 366 -16 244 41 172 156 C 99 271 63 491 63 817 C 63 987 73 1127 93 1236 C 113 1345 141 1426 178 1479 C 214 1532 264 1572 326 1600 C 388 1628 458 1642 537 1642 Z M 537 143 C 594 143 643 155 683 181 C 723 207 753 246 771 298 C 789 350 803 419 812 506 C 820 592 825 695 825 815 C 825 935 819 1045 807 1147 C 795 1248 779 1317 757 1355 C 735 1392 704 1420 666 1440 C 628 1460 585 1470 537 1470 C 488 1470 445 1460 408 1442 C 371 1423 342 1394 321 1356 C 299 1318 282 1248 270 1148 C 258 1048 252 935 252 811 C 252 687 256 581 265 491 C 274 401 288 334 306 288 C 324 242 353 206 393 181 C 433 155 481 143 537 143 Z M 435 1723 C 415 1723 402 1717 394 1706 C 386 1695 381 1671 379 1633 L 260 1633 C 263 1701 278 1754 306 1793 C 333 1832 372 1852 422 1852 C 475 1852 521 1832 559 1792 C 587 1762 613 1747 636 1747 C 654 1747 667 1751 675 1761 C 683 1770 688 1796 692 1840 L 811 1840 C 807 1769 792 1714 765 1676 C 738 1637 700 1618 651 1618 C 628 1618 605 1621 583 1627 C 561 1633 539 1648 518 1672 C 501 1688 487 1700 475 1709 C 463 1718 450 1723 435 1723 Z" unicode="Õ" />
<glyph horiz-adv-x="1071" d="M 537 1642 C 654 1642 748 1615 818 1563 C 888 1511 938 1430 967 1322 C 995 1213 1010 1046 1010 821 C 1010 593 994 423 963 311 C 931 199 882 117 815 64 C 748 10 655 -16 537 -16 C 366 -16 244 41 172 156 C 99 271 63 491 63 817 C 63 987 73 1127 93 1236 C 113 1345 141 1426 178 1479 C 214 1532 264 1572 326 1600 C 388 1628 458 1642 537 1642 Z M 537 143 C 594 143 643 155 683 181 C 723 207 753 246 771 298 C 789 350 803 419 812 506 C 820 592 825 695 825 815 C 825 935 819 1045 807 1147 C 795 1248 779 1317 757 1355 C 735 1392 704 1420 666 1440 C 628 1460 585 1470 537 1470 C 488 1470 445 1460 408 1442 C 371 1423 342 1394 321 1356 C 299 1318 282 1248 270 1148 C 258 1048 252 935 252 811 C 252 687 256 581 265 491 C 274 401 288 334 306 288 C 324 242 353 206 393 181 C 433 155 481 143 537 143 Z M 758 1616 L 603 1616 L 603 1833 L 758 1833 L 758 1616 Z M 468 1616 L 312 1616 L 312 1833 L 468 1833 L 468 1616 Z" unicode="Ö" />
<glyph horiz-adv-x="799" d="M 674 969 L 489 784 L 676 600 L 582 502 L 399 686 L 215 502 L 123 602 L 307 784 L 123 969 L 217 1069 L 399 885 L 582 1069 L 674 969 Z" unicode="×" />
<glyph horiz-adv-x="1071" d="M 874 1511 C 922 1455 957 1376 978 1272 C 999 1168 1010 1017 1010 821 C 1010 593 994 423 963 311 C 931 199 882 117 815 64 C 748 10 655 -16 537 -16 C 434 -16 348 5 279 47 L 227 -80 L 115 -80 L 197 121 C 149 182 115 269 94 382 C 73 495 63 640 63 817 C 63 987 73 1127 93 1236 C 113 1345 141 1426 178 1479 C 214 1532 264 1572 326 1600 C 388 1628 458 1642 537 1642 C 637 1642 723 1621 793 1581 L 823 1655 L 932 1655 L 874 1511 Z M 289 346 L 721 1403 C 675 1447 613 1470 537 1470 C 488 1470 445 1460 408 1442 C 371 1423 342 1394 321 1356 C 299 1318 282 1248 270 1148 C 258 1048 252 935 252 811 C 252 712 254 625 260 549 C 265 473 275 405 289 346 Z M 784 1288 L 348 217 C 394 167 457 143 537 143 C 594 143 643 155 683 181 C 723 207 753 246 771 298 C 789 350 803 419 812 506 C 820 592 825 695 825 815 C 825 909 822 997 816 1081 C 810 1164 799 1233 784 1288 Z" unicode="Ø" />
<glyph horiz-adv-x="1051" d="M 946 352 C 946 233 908 142 834 79 C 760 15 657 -16 526 -16 C 388 -16 282 16 209 81 C 136 145 100 238 100 360 L 100 1628 L 283 1628 L 283 377 C 283 302 303 245 345 207 C 386 169 447 150 528 150 C 600 150 657 168 700 205 C 742 242 764 299 764 375 L 764 1628 L 946 1628 L 946 352 Z M 696 1616 L 530 1616 L 354 1880 L 540 1880 L 696 1616 Z" unicode="Ù" />
<glyph horiz-adv-x="1051" d="M 946 352 C 946 233 908 142 834 79 C 760 15 657 -16 526 -16 C 388 -16 282 16 209 81 C 136 145 100 238 100 360 L 100 1628 L 283 1628 L 283 377 C 283 302 303 245 345 207 C 386 169 447 150 528 150 C 600 150 657 168 700 205 C 742 242 764 299 764 375 L 764 1628 L 946 1628 L 946 352 Z M 355 1616 L 509 1880 L 695 1880 L 517 1616 L 355 1616 Z" unicode="Ú" />
<glyph horiz-adv-x="1051" d="M 946 352 C 946 233 908 142 834 79 C 760 15 657 -16 526 -16 C 388 -16 282 16 209 81 C 136 145 100 238 100 360 L 100 1628 L 283 1628 L 283 377 C 283 302 303 245 345 207 C 386 169 447 150 528 150 C 600 150 657 168 700 205 C 742 242 764 299 764 375 L 764 1628 L 946 1628 L 946 352 Z M 785 1620 L 640 1620 L 525 1780 L 408 1620 L 265 1620 L 431 1883 L 621 1883 L 785 1620 Z" unicode="Û" />
<glyph horiz-adv-x="1051" d="M 946 352 C 946 233 908 142 834 79 C 760 15 657 -16 526 -16 C 388 -16 282 16 209 81 C 136 145 100 238 100 360 L 100 1628 L 283 1628 L 283 377 C 283 302 303 245 345 207 C 386 169 447 150 528 150 C 600 150 657 168 700 205 C 742 242 764 299 764 375 L 764 1628 L 946 1628 L 946 352 Z M 748 1616 L 593 1616 L 593 1833 L 748 1833 L 748 1616 Z M 458 1616 L 302 1616 L 302 1833 L 458 1833 L 458 1616 Z" unicode="Ü" />
<glyph horiz-adv-x="1020" d="M 1018 1628 L 594 578 L 594 0 L 408 0 L 408 573 L 2 1628 L 193 1628 C 400 1083 504 800 504 780 C 504 792 540 892 613 1078 C 685 1264 759 1448 834 1628 L 1018 1628 Z M 340 1616 L 494 1880 L 680 1880 L 502 1616 L 340 1616 Z" unicode="Ý" />
<glyph horiz-adv-x="1001" d="M 303 1628 L 303 1346 L 596 1346 C 681 1346 749 1328 800 1294 C 851 1260 885 1205 903 1130 C 916 1102 926 1062 934 1010 C 942 958 946 903 946 846 C 946 789 942 734 934 680 C 926 626 917 586 905 559 C 864 421 762 350 600 348 L 546 348 L 301 350 L 301 0 L 115 0 L 115 1628 L 303 1628 Z M 760 842 C 760 927 754 992 742 1038 C 730 1083 710 1116 683 1136 C 655 1156 616 1167 565 1167 L 301 1167 L 301 518 L 565 518 C 611 518 648 528 676 548 C 704 568 725 598 739 638 C 753 678 760 746 760 842 Z" unicode="Þ" />
<glyph horiz-adv-x="1200" d="M 475 1489 C 424 1489 387 1475 364 1449 C 341 1422 330 1381 330 1325 L 330 0 L 156 0 L 156 981 L 18 981 L 18 1135 L 156 1135 L 156 1343 C 156 1442 184 1517 240 1568 C 296 1619 379 1645 487 1645 C 577 1645 649 1620 705 1571 C 760 1521 788 1456 788 1374 C 788 1334 780 1296 766 1260 C 752 1223 729 1183 699 1141 C 666 1095 643 1055 630 1023 C 616 991 610 958 610 924 C 610 889 615 860 625 836 C 635 812 650 792 671 774 C 692 756 727 735 776 713 C 821 690 870 668 924 647 C 1087 583 1169 471 1169 311 C 1169 200 1139 118 1079 65 C 1019 12 929 -14 809 -14 C 697 -14 611 3 551 39 C 491 75 456 131 446 209 L 441 283 L 438 360 L 612 360 L 612 308 C 612 258 615 224 623 206 C 630 187 642 171 659 158 C 676 145 697 135 722 129 C 747 122 777 119 811 119 C 878 119 926 131 955 157 C 984 182 999 225 999 287 C 999 345 985 391 959 427 C 933 462 890 492 831 516 L 700 575 C 628 607 575 637 542 665 C 509 693 484 727 468 766 C 452 805 444 851 444 905 C 444 945 450 983 464 1020 C 477 1057 498 1096 526 1136 C 556 1180 578 1216 590 1244 C 602 1272 608 1302 608 1333 C 608 1387 596 1427 574 1452 C 552 1476 519 1489 475 1489 Z" unicode="ß" />
<glyph horiz-adv-x="856" d="M 791 0 L 633 0 C 630 0 627 11 623 34 C 619 56 618 76 618 93 L 618 104 C 594 67 561 39 517 19 C 473 0 413 -10 338 -10 C 279 -10 228 1 185 24 C 141 46 109 79 87 121 C 65 163 54 220 54 293 C 54 389 72 465 108 520 C 144 575 197 615 267 641 C 337 667 427 680 536 681 L 614 678 L 614 769 L 612 868 C 608 914 592 947 565 965 C 538 983 500 993 451 993 C 401 993 361 982 331 962 C 301 942 280 915 270 883 C 259 851 254 801 254 735 L 92 735 C 92 820 98 885 112 929 C 125 973 146 1012 175 1044 C 203 1076 241 1101 287 1119 C 333 1136 387 1145 451 1145 C 659 1145 766 1062 774 897 L 777 708 L 777 602 L 774 339 L 774 180 C 774 136 775 98 779 65 C 783 31 787 10 791 0 Z M 557 543 C 449 543 368 528 314 500 C 260 472 227 428 217 369 C 214 350 213 327 213 300 C 213 242 228 200 259 172 C 289 144 333 131 389 131 C 425 131 459 137 491 151 C 523 164 549 185 570 215 C 590 245 603 283 609 330 C 614 376 617 416 617 450 L 617 484 L 616 539 C 596 541 577 543 557 543 Z M 599 1206 L 433 1206 L 257 1470 L 443 1470 L 599 1206 Z" unicode="à" />
<glyph horiz-adv-x="856" d="M 791 0 L 633 0 C 630 0 627 11 623 34 C 619 56 618 76 618 93 L 618 104 C 594 67 561 39 517 19 C 473 0 413 -10 338 -10 C 279 -10 228 1 185 24 C 141 46 109 79 87 121 C 65 163 54 220 54 293 C 54 389 72 465 108 520 C 144 575 197 615 267 641 C 337 667 427 680 536 681 L 614 678 L 614 769 L 612 868 C 608 914 592 947 565 965 C 538 983 500 993 451 993 C 401 993 361 982 331 962 C 301 942 280 915 270 883 C 259 851 254 801 254 735 L 92 735 C 92 820 98 885 112 929 C 125 973 146 1012 175 1044 C 203 1076 241 1101 287 1119 C 333 1136 387 1145 451 1145 C 659 1145 766 1062 774 897 L 777 708 L 777 602 L 774 339 L 774 180 C 774 136 775 98 779 65 C 783 31 787 10 791 0 Z M 557 543 C 449 543 368 528 314 500 C 260 472 227 428 217 369 C 214 350 213 327 213 300 C 213 242 228 200 259 172 C 289 144 333 131 389 131 C 425 131 459 137 491 151 C 523 164 549 185 570 215 C 590 245 603 283 609 330 C 614 376 617 416 617 450 L 617 484 L 616 539 C 596 541 577 543 557 543 Z M 258 1206 L 412 1470 L 598 1470 L 420 1206 L 258 1206 Z" unicode="á" />
<glyph horiz-adv-x="856" d="M 791 0 L 633 0 C 630 0 627 11 623 34 C 619 56 618 76 618 93 L 618 104 C 594 67 561 39 517 19 C 473 0 413 -10 338 -10 C 279 -10 228 1 185 24 C 141 46 109 79 87 121 C 65 163 54 220 54 293 C 54 389 72 465 108 520 C 144 575 197 615 267 641 C 337 667 427 680 536 681 L 614 678 L 614 769 L 612 868 C 608 914 592 947 565 965 C 538 983 500 993 451 993 C 401 993 361 982 331 962 C 301 942 280 915 270 883 C 259 851 254 801 254 735 L 92 735 C 92 820 98 885 112 929 C 125 973 146 1012 175 1044 C 203 1076 241 1101 287 1119 C 333 1136 387 1145 451 1145 C 659 1145 766 1062 774 897 L 777 708 L 777 602 L 774 339 L 774 180 C 774 136 775 98 779 65 C 783 31 787 10 791 0 Z M 557 543 C 449 543 368 528 314 500 C 260 472 227 428 217 369 C 214 350 213 327 213 300 C 213 242 228 200 259 172 C 289 144 333 131 389 131 C 425 131 459 137 491 151 C 523 164 549 185 570 215 C 590 245 603 283 609 330 C 614 376 617 416 617 450 L 617 484 L 616 539 C 596 541 577 543 557 543 Z M 688 1210 L 543 1210 L 428 1370 L 311 1210 L 168 1210 L 334 1473 L 524 1473 L 688 1210 Z" unicode="â" />
<glyph horiz-adv-x="856" d="M 791 0 L 633 0 C 630 0 627 11 623 34 C 619 56 618 76 618 93 L 618 104 C 594 67 561 39 517 19 C 473 0 413 -10 338 -10 C 279 -10 228 1 185 24 C 141 46 109 79 87 121 C 65 163 54 220 54 293 C 54 389 72 465 108 520 C 144 575 197 615 267 641 C 337 667 427 680 536 681 L 614 678 L 614 769 L 612 868 C 608 914 592 947 565 965 C 538 983 500 993 451 993 C 401 993 361 982 331 962 C 301 942 280 915 270 883 C 259 851 254 801 254 735 L 92 735 C 92 820 98 885 112 929 C 125 973 146 1012 175 1044 C 203 1076 241 1101 287 1119 C 333 1136 387 1145 451 1145 C 659 1145 766 1062 774 897 L 777 708 L 777 602 L 774 339 L 774 180 C 774 136 775 98 779 65 C 783 31 787 10 791 0 Z M 557 543 C 449 543 368 528 314 500 C 260 472 227 428 217 369 C 214 350 213 327 213 300 C 213 242 228 200 259 172 C 289 144 333 131 389 131 C 425 131 459 137 491 151 C 523 164 549 185 570 215 C 590 245 603 283 609 330 C 614 376 617 416 617 450 L 617 484 L 616 539 C 596 541 577 543 557 543 Z M 327 1313 C 307 1313 294 1307 286 1296 C 278 1285 273 1261 271 1223 L 152 1223 C 155 1291 170 1344 198 1383 C 225 1422 264 1442 314 1442 C 367 1442 413 1422 451 1382 C 479 1352 505 1337 528 1337 C 546 1337 559 1341 567 1351 C 575 1360 580 1386 584 1430 L 703 1430 C 699 1359 684 1304 657 1266 C 630 1227 592 1208 543 1208 C 520 1208 497 1211 475 1217 C 453 1223 431 1238 410 1262 C 393 1278 379 1290 367 1299 C 355 1308 342 1313 327 1313 Z" unicode="ã" />
<glyph horiz-adv-x="856" d="M 791 0 L 633 0 C 630 0 627 11 623 34 C 619 56 618 76 618 93 L 618 104 C 594 67 561 39 517 19 C 473 0 413 -10 338 -10 C 279 -10 228 1 185 24 C 141 46 109 79 87 121 C 65 163 54 220 54 293 C 54 389 72 465 108 520 C 144 575 197 615 267 641 C 337 667 427 680 536 681 L 614 678 L 614 769 L 612 868 C 608 914 592 947 565 965 C 538 983 500 993 451 993 C 401 993 361 982 331 962 C 301 942 280 915 270 883 C 259 851 254 801 254 735 L 92 735 C 92 820 98 885 112 929 C 125 973 146 1012 175 1044 C 203 1076 241 1101 287 1119 C 333 1136 387 1145 451 1145 C 659 1145 766 1062 774 897 L 777 708 L 777 602 L 774 339 L 774 180 C 774 136 775 98 779 65 C 783 31 787 10 791 0 Z M 557 543 C 449 543 368 528 314 500 C 260 472 227 428 217 369 C 214 350 213 327 213 300 C 213 242 228 200 259 172 C 289 144 333 131 389 131 C 425 131 459 137 491 151 C 523 164 549 185 570 215 C 590 245 603 283 609 330 C 614 376 617 416 617 450 L 617 484 L 616 539 C 596 541 577 543 557 543 Z M 651 1206 L 496 1206 L 496 1423 L 651 1423 L 651 1206 Z M 361 1206 L 205 1206 L 205 1423 L 361 1423 L 361 1206 Z" unicode="ä" />
<glyph horiz-adv-x="856" d="M 791 0 L 633 0 C 630 0 627 11 623 34 C 619 56 618 76 618 93 L 618 104 C 594 67 561 39 517 19 C 473 0 413 -10 338 -10 C 279 -10 228 1 185 24 C 141 46 109 79 87 121 C 65 163 54 220 54 293 C 54 389 72 465 108 520 C 144 575 197 615 267 641 C 337 667 427 680 536 681 L 614 678 L 614 769 L 612 868 C 608 914 592 947 565 965 C 538 983 500 993 451 993 C 401 993 361 982 331 962 C 301 942 280 915 270 883 C 259 851 254 801 254 735 L 92 735 C 92 820 98 885 112 929 C 125 973 146 1012 175 1044 C 203 1076 241 1101 287 1119 C 333 1136 387 1145 451 1145 C 659 1145 766 1062 774 897 L 777 708 L 777 602 L 774 339 L 774 180 C 774 136 775 98 779 65 C 783 31 787 10 791 0 Z M 557 543 C 449 543 368 528 314 500 C 260 472 227 428 217 369 C 214 350 213 327 213 300 C 213 242 228 200 259 172 C 289 144 333 131 389 131 C 425 131 459 137 491 151 C 523 164 549 185 570 215 C 590 245 603 283 609 330 C 614 376 617 416 617 450 L 617 484 L 616 539 C 596 541 577 543 557 543 Z M 427 1536 C 472 1536 510 1520 540 1488 C 570 1456 585 1418 585 1374 C 585 1330 569 1291 539 1259 C 509 1226 471 1210 427 1210 C 384 1210 347 1225 316 1257 C 285 1289 270 1328 270 1374 C 270 1420 285 1458 316 1489 C 346 1520 383 1536 427 1536 Z M 427 1444 C 408 1444 392 1437 380 1423 C 368 1409 362 1392 362 1374 C 362 1355 368 1339 380 1325 C 392 1311 408 1305 427 1305 C 444 1305 459 1311 473 1325 C 486 1339 493 1355 493 1374 C 493 1391 486 1407 473 1422 C 460 1436 445 1444 427 1444 Z" unicode="å" />
<glyph horiz-adv-x="1403" d="M 678 137 C 641 85 596 48 544 25 C 491 1 422 -10 338 -10 C 279 -10 228 1 185 24 C 141 46 109 79 87 121 C 65 163 54 220 54 293 C 54 386 69 460 101 514 C 133 568 184 610 256 639 C 328 667 421 682 536 683 L 614 680 L 614 770 L 612 868 C 608 914 592 947 565 965 C 538 983 500 993 451 993 C 401 993 361 982 331 962 C 301 942 280 915 270 883 C 259 851 254 801 254 735 L 92 735 C 92 820 98 885 112 929 C 125 973 146 1012 175 1044 C 203 1076 241 1101 287 1119 C 333 1136 387 1145 451 1145 C 524 1145 582 1134 626 1112 C 670 1090 700 1054 717 1006 C 739 1048 775 1082 826 1107 C 877 1132 932 1145 991 1145 C 1083 1145 1158 1125 1215 1085 C 1272 1045 1311 983 1332 900 C 1353 816 1364 696 1364 538 L 1364 496 L 774 496 C 774 386 789 296 820 228 C 850 159 909 125 995 125 C 1049 125 1092 135 1124 155 C 1155 175 1175 201 1185 232 C 1195 262 1200 300 1200 344 L 1362 344 C 1362 281 1350 221 1328 165 C 1305 108 1267 64 1214 32 C 1161 0 1087 -16 993 -16 C 830 -16 725 35 678 137 Z M 1198 629 C 1198 715 1191 783 1179 835 C 1167 887 1145 926 1114 953 C 1083 979 1041 993 989 993 C 905 993 849 960 819 894 C 789 828 774 740 774 629 L 1198 629 Z M 546 537 C 512 536 472 533 427 527 C 381 521 348 514 326 505 C 304 496 284 483 267 467 C 249 450 236 429 227 405 C 217 380 213 345 213 300 C 213 188 271 133 389 133 C 425 133 459 139 491 152 C 523 165 550 187 570 217 C 590 247 603 285 609 333 C 614 380 617 419 617 449 L 617 481 L 616 532 C 592 535 569 537 546 537 Z" unicode="æ" />
<glyph horiz-adv-x="850" d="M 53 565 C 53 765 85 912 150 1005 C 214 1098 315 1145 453 1145 C 567 1145 654 1108 713 1034 C 771 960 801 853 801 715 L 637 715 C 637 896 572 987 444 987 C 386 987 342 973 311 947 C 279 920 257 877 243 818 C 229 759 223 674 223 563 C 223 398 239 285 273 224 C 306 163 362 133 440 133 C 502 133 550 154 586 196 C 621 238 639 299 639 380 L 639 399 L 801 399 C 801 275 773 178 718 107 C 662 35 583 -4 479 -12 C 483 -28 493 -37 508 -41 C 554 -52 589 -73 613 -105 C 637 -137 649 -174 649 -217 C 649 -265 629 -304 589 -334 C 549 -363 496 -378 430 -378 C 390 -378 346 -371 297 -358 L 297 -262 C 337 -273 372 -279 402 -279 C 435 -279 462 -272 483 -258 C 503 -244 514 -223 514 -197 C 514 -169 507 -147 494 -131 C 480 -115 458 -100 426 -88 C 392 -75 373 -49 369 -10 C 257 2 176 55 127 147 C 77 239 53 378 53 565 Z" unicode="ç" />
<glyph horiz-adv-x="852" d="M 807 344 C 807 228 776 139 714 77 C 652 15 560 -16 438 -16 C 300 -16 202 30 142 122 C 82 214 53 360 53 559 C 53 756 84 903 147 1000 C 209 1096 306 1145 436 1145 C 566 1145 661 1104 720 1022 C 779 940 809 817 809 653 L 809 496 L 219 496 C 219 366 235 273 269 215 C 302 157 355 129 428 129 C 509 129 565 145 597 178 C 629 210 645 266 645 344 L 807 344 Z M 643 629 L 643 676 C 643 787 625 868 590 918 C 555 968 503 993 434 993 C 359 993 304 965 270 909 C 236 853 219 759 219 629 L 643 629 Z M 597 1206 L 431 1206 L 255 1470 L 441 1470 L 597 1206 Z" unicode="è" />
<glyph horiz-adv-x="852" d="M 807 344 C 807 228 776 139 714 77 C 652 15 560 -16 438 -16 C 300 -16 202 30 142 122 C 82 214 53 360 53 559 C 53 756 84 903 147 1000 C 209 1096 306 1145 436 1145 C 566 1145 661 1104 720 1022 C 779 940 809 817 809 653 L 809 496 L 219 496 C 219 366 235 273 269 215 C 302 157 355 129 428 129 C 509 129 565 145 597 178 C 629 210 645 266 645 344 L 807 344 Z M 643 629 L 643 676 C 643 787 625 868 590 918 C 555 968 503 993 434 993 C 359 993 304 965 270 909 C 236 853 219 759 219 629 L 643 629 Z M 256 1206 L 410 1470 L 596 1470 L 418 1206 L 256 1206 Z" unicode="é" />
<glyph horiz-adv-x="852" d="M 807 344 C 807 228 776 139 714 77 C 652 15 560 -16 438 -16 C 300 -16 202 30 142 122 C 82 214 53 360 53 559 C 53 756 84 903 147 1000 C 209 1096 306 1145 436 1145 C 566 1145 661 1104 720 1022 C 779 940 809 817 809 653 L 809 496 L 219 496 C 219 366 235 273 269 215 C 302 157 355 129 428 129 C 509 129 565 145 597 178 C 629 210 645 266 645 344 L 807 344 Z M 643 629 L 643 676 C 643 787 625 868 590 918 C 555 968 503 993 434 993 C 359 993 304 965 270 909 C 236 853 219 759 219 629 L 643 629 Z M 686 1210 L 541 1210 L 426 1370 L 309 1210 L 166 1210 L 332 1473 L 522 1473 L 686 1210 Z" unicode="ê" />
<glyph horiz-adv-x="852" d="M 807 344 C 807 228 776 139 714 77 C 652 15 560 -16 438 -16 C 300 -16 202 30 142 122 C 82 214 53 360 53 559 C 53 756 84 903 147 1000 C 209 1096 306 1145 436 1145 C 566 1145 661 1104 720 1022 C 779 940 809 817 809 653 L 809 496 L 219 496 C 219 366 235 273 269 215 C 302 157 355 129 428 129 C 509 129 565 145 597 178 C 629 210 645 266 645 344 L 807 344 Z M 643 629 L 643 676 C 643 787 625 868 590 918 C 555 968 503 993 434 993 C 359 993 304 965 270 909 C 236 853 219 759 219 629 L 643 629 Z M 649 1206 L 494 1206 L 494 1423 L 649 1423 L 649 1206 Z M 359 1206 L 203 1206 L 203 1423 L 359 1423 L 359 1206 Z" unicode="ë" />
<glyph horiz-adv-x="358" d="M 274 0 L 106 0 C 104 1 101 9 98 25 C 95 40 94 62 94 90 L 94 1126 L 264 1126 L 264 100 C 264 71 265 48 268 30 C 270 12 272 2 274 0 Z M 351 1206 L 185 1206 L 9 1470 L 195 1470 L 351 1206 Z" unicode="ì" />
<glyph horiz-adv-x="358" d="M 274 0 L 106 0 C 104 1 101 9 98 25 C 95 40 94 62 94 90 L 94 1126 L 264 1126 L 264 100 C 264 71 265 48 268 30 C 270 12 272 2 274 0 Z M 10 1206 L 164 1470 L 350 1470 L 172 1206 L 10 1206 Z" unicode="í" />
<glyph horiz-adv-x="358" d="M 274 0 L 106 0 C 104 1 101 9 98 25 C 95 40 94 62 94 90 L 94 1126 L 264 1126 L 264 100 C 264 71 265 48 268 30 C 270 12 272 2 274 0 Z M 440 1210 L 295 1210 L 180 1370 L 63 1210 L -80 1210 L 86 1473 L 276 1473 L 440 1210 Z" unicode="î" />
<glyph horiz-adv-x="358" d="M 274 0 L 106 0 C 104 1 101 9 98 25 C 95 40 94 62 94 90 L 94 1126 L 264 1126 L 264 100 C 264 71 265 48 268 30 C 270 12 272 2 274 0 Z M 403 1206 L 248 1206 L 248 1423 L 403 1423 L 403 1206 Z M 113 1206 L -43 1206 L -43 1423 L 113 1423 L 113 1206 Z" unicode="ï" />
<glyph horiz-adv-x="901" d="M 651 1190 C 619 1172 593 1163 571 1163 C 533 1163 500 1175 474 1201 C 447 1227 430 1263 422 1311 L 494 1335 C 499 1301 508 1277 520 1263 C 532 1249 549 1243 571 1243 C 597 1243 621 1253 643 1274 C 633 1351 613 1408 582 1444 C 550 1480 504 1499 442 1499 C 390 1499 351 1490 326 1473 C 300 1455 283 1431 274 1399 L 270 1356 L 102 1356 C 102 1375 105 1401 111 1434 C 127 1500 164 1551 222 1589 C 280 1626 357 1645 453 1645 C 536 1645 606 1625 663 1585 C 719 1545 759 1486 782 1409 L 799 1348 C 813 1358 826 1366 838 1370 C 849 1374 863 1376 881 1376 C 923 1374 956 1360 980 1332 C 1004 1304 1020 1268 1028 1225 L 958 1198 C 952 1233 942 1258 930 1272 C 917 1286 900 1294 879 1294 C 863 1294 852 1291 844 1287 C 836 1282 825 1275 813 1266 C 821 1224 828 1167 836 1093 C 844 1019 848 951 848 889 C 848 580 838 381 819 293 C 797 189 755 111 695 61 C 634 11 551 -14 446 -14 C 351 -14 275 3 217 37 C 159 71 117 123 90 193 C 63 263 50 379 50 543 C 50 660 59 756 77 831 C 94 906 129 964 183 1005 C 236 1046 308 1067 399 1067 C 524 1067 615 1025 672 942 C 672 1030 665 1113 651 1190 Z M 446 141 C 568 141 638 203 657 328 C 660 347 663 402 667 493 C 670 584 672 672 672 758 C 658 809 630 849 590 878 C 550 907 503 922 449 922 C 355 922 292 883 258 805 C 250 786 243 746 239 686 C 235 626 233 566 233 508 C 233 388 240 306 256 262 C 271 218 294 187 326 169 C 357 150 397 141 446 141 Z" unicode="ð" />
<glyph horiz-adv-x="866" d="M 788 0 L 623 0 C 620 0 618 18 617 55 C 616 91 616 156 616 250 L 616 827 C 616 929 561 981 453 981 C 391 981 344 963 310 927 C 276 891 260 842 260 780 L 260 0 L 92 0 L 92 1126 L 254 1126 L 254 991 C 268 1039 299 1076 345 1103 C 391 1129 449 1143 518 1143 C 606 1143 672 1119 717 1071 C 761 1023 784 954 784 864 L 784 260 C 784 86 785 0 788 0 Z M 332 1313 C 312 1313 299 1307 291 1296 C 283 1285 278 1261 276 1223 L 157 1223 C 160 1291 175 1344 203 1383 C 230 1422 269 1442 319 1442 C 372 1442 418 1422 456 1382 C 484 1352 510 1337 533 1337 C 551 1337 564 1341 572 1351 C 580 1360 585 1386 589 1430 L 708 1430 C 704 1359 689 1304 662 1266 C 635 1227 597 1208 548 1208 C 525 1208 502 1211 480 1217 C 458 1223 436 1238 415 1262 C 398 1278 384 1290 372 1299 C 360 1308 347 1313 332 1313 Z" unicode="ñ" />
<glyph horiz-adv-x="887" d="M 836 565 C 836 366 803 219 738 125 C 673 31 575 -16 444 -16 C 309 -16 210 31 147 125 C 84 219 53 365 53 565 C 53 769 85 916 150 1008 C 214 1099 313 1145 446 1145 C 538 1145 613 1125 670 1085 C 727 1045 769 984 796 903 C 822 821 836 709 836 565 Z M 670 563 C 670 682 663 770 649 828 C 635 885 613 926 581 952 C 549 978 504 991 444 991 C 364 991 306 959 272 895 C 238 831 221 721 221 563 C 221 457 228 372 243 310 C 258 248 281 203 313 175 C 344 147 388 133 446 133 C 528 133 585 165 619 231 C 653 296 670 407 670 563 Z M 614 1206 L 448 1206 L 272 1470 L 458 1470 L 614 1206 Z" unicode="ò" />
<glyph horiz-adv-x="887" d="M 836 565 C 836 366 803 219 738 125 C 673 31 575 -16 444 -16 C 309 -16 210 31 147 125 C 84 219 53 365 53 565 C 53 769 85 916 150 1008 C 214 1099 313 1145 446 1145 C 538 1145 613 1125 670 1085 C 727 1045 769 984 796 903 C 822 821 836 709 836 565 Z M 670 563 C 670 682 663 770 649 828 C 635 885 613 926 581 952 C 549 978 504 991 444 991 C 364 991 306 959 272 895 C 238 831 221 721 221 563 C 221 457 228 372 243 310 C 258 248 281 203 313 175 C 344 147 388 133 446 133 C 528 133 585 165 619 231 C 653 296 670 407 670 563 Z M 273 1206 L 427 1470 L 613 1470 L 435 1206 L 273 1206 Z" unicode="ó" />
<glyph horiz-adv-x="887" d="M 836 565 C 836 366 803 219 738 125 C 673 31 575 -16 444 -16 C 309 -16 210 31 147 125 C 84 219 53 365 53 565 C 53 769 85 916 150 1008 C 214 1099 313 1145 446 1145 C 538 1145 613 1125 670 1085 C 727 1045 769 984 796 903 C 822 821 836 709 836 565 Z M 670 563 C 670 682 663 770 649 828 C 635 885 613 926 581 952 C 549 978 504 991 444 991 C 364 991 306 959 272 895 C 238 831 221 721 221 563 C 221 457 228 372 243 310 C 258 248 281 203 313 175 C 344 147 388 133 446 133 C 528 133 585 165 619 231 C 653 296 670 407 670 563 Z M 703 1210 L 558 1210 L 443 1370 L 326 1210 L 183 1210 L 349 1473 L 539 1473 L 703 1210 Z" unicode="ô" />
<glyph horiz-adv-x="887" d="M 836 565 C 836 366 803 219 738 125 C 673 31 575 -16 444 -16 C 309 -16 210 31 147 125 C 84 219 53 365 53 565 C 53 769 85 916 150 1008 C 214 1099 313 1145 446 1145 C 538 1145 613 1125 670 1085 C 727 1045 769 984 796 903 C 822 821 836 709 836 565 Z M 670 563 C 670 682 663 770 649 828 C 635 885 613 926 581 952 C 549 978 504 991 444 991 C 364 991 306 959 272 895 C 238 831 221 721 221 563 C 221 457 228 372 243 310 C 258 248 281 203 313 175 C 344 147 388 133 446 133 C 528 133 585 165 619 231 C 653 296 670 407 670 563 Z M 343 1313 C 323 1313 310 1307 302 1296 C 294 1285 289 1261 287 1223 L 168 1223 C 171 1291 186 1344 214 1383 C 241 1422 280 1442 330 1442 C 383 1442 429 1422 467 1382 C 495 1352 521 1337 544 1337 C 562 1337 575 1341 583 1351 C 591 1360 596 1386 600 1430 L 719 1430 C 715 1359 700 1304 673 1266 C 646 1227 608 1208 559 1208 C 536 1208 513 1211 491 1217 C 469 1223 447 1238 426 1262 C 409 1278 395 1290 383 1299 C 371 1308 358 1313 343 1313 Z" unicode="õ" />
<glyph horiz-adv-x="887" d="M 836 565 C 836 366 803 219 738 125 C 673 31 575 -16 444 -16 C 309 -16 210 31 147 125 C 84 219 53 365 53 565 C 53 769 85 916 150 1008 C 214 1099 313 1145 446 1145 C 538 1145 613 1125 670 1085 C 727 1045 769 984 796 903 C 822 821 836 709 836 565 Z M 670 563 C 670 682 663 770 649 828 C 635 885 613 926 581 952 C 549 978 504 991 444 991 C 364 991 306 959 272 895 C 238 831 221 721 221 563 C 221 457 228 372 243 310 C 258 248 281 203 313 175 C 344 147 388 133 446 133 C 528 133 585 165 619 231 C 653 296 670 407 670 563 Z M 666 1206 L 511 1206 L 511 1423 L 666 1423 L 666 1206 Z M 376 1206 L 220 1206 L 220 1423 L 376 1423 L 376 1206 Z" unicode="ö" />
<glyph horiz-adv-x="1536" d="M 208 684 L 208 896 L 1328 896 L 1328 684 L 208 684 Z M 768 228 C 725 228 688 244 656 276 C 624 308 608 345 608 388 C 608 430 622 468 650 500 C 678 532 717 548 768 548 C 816 548 854 532 884 500 C 913 468 928 430 928 388 C 928 345 912 308 880 276 C 848 244 810 228 768 228 Z M 768 1028 C 725 1028 688 1044 656 1076 C 624 1108 608 1145 608 1188 C 608 1230 622 1268 650 1300 C 678 1332 717 1348 768 1348 C 816 1348 854 1332 884 1300 C 913 1268 928 1230 928 1188 C 928 1145 912 1108 880 1076 C 848 1044 810 1028 768 1028 Z" unicode="÷" />
<glyph horiz-adv-x="887" d="M 174 92 C 134 137 104 201 84 284 C 63 366 53 460 53 565 C 53 765 85 912 150 1005 C 215 1098 314 1145 446 1145 C 525 1145 591 1130 643 1102 L 678 1176 L 776 1176 L 715 1047 C 755 1004 786 944 806 868 C 826 791 836 690 836 565 C 836 369 804 224 740 128 C 676 32 577 -16 444 -16 C 364 -16 296 1 242 35 L 201 -51 L 106 -51 L 174 92 Z M 256 268 L 575 956 C 542 979 498 991 444 991 C 366 991 309 960 274 900 C 238 839 221 727 221 563 C 221 455 232 356 256 268 Z M 635 874 L 307 178 C 341 148 387 133 446 133 C 483 133 516 140 544 154 C 572 168 594 188 612 216 C 629 244 643 290 654 356 C 664 421 670 490 670 563 C 670 714 658 818 635 874 Z" unicode="ø" />
<glyph horiz-adv-x="866" d="M 784 0 L 625 0 L 618 106 C 600 69 568 40 520 19 C 472 -1 421 -12 365 -12 C 278 -12 210 12 161 60 C 112 108 88 177 88 266 L 88 1016 L 86 1126 L 254 1126 L 256 1020 L 256 305 C 256 191 310 135 418 135 C 476 135 523 150 558 182 C 592 213 610 257 610 315 L 610 1126 L 780 1126 L 780 158 C 780 63 781 10 784 0 Z M 604 1206 L 438 1206 L 262 1470 L 448 1470 L 604 1206 Z" unicode="ù" />
<glyph horiz-adv-x="866" d="M 784 0 L 625 0 L 618 106 C 600 69 568 40 520 19 C 472 -1 421 -12 365 -12 C 278 -12 210 12 161 60 C 112 108 88 177 88 266 L 88 1016 L 86 1126 L 254 1126 L 256 1020 L 256 305 C 256 191 310 135 418 135 C 476 135 523 150 558 182 C 592 213 610 257 610 315 L 610 1126 L 780 1126 L 780 158 C 780 63 781 10 784 0 Z M 263 1206 L 417 1470 L 603 1470 L 425 1206 L 263 1206 Z" unicode="ú" />
<glyph horiz-adv-x="866" d="M 784 0 L 625 0 L 618 106 C 600 69 568 40 520 19 C 472 -1 421 -12 365 -12 C 278 -12 210 12 161 60 C 112 108 88 177 88 266 L 88 1016 L 86 1126 L 254 1126 L 256 1020 L 256 305 C 256 191 310 135 418 135 C 476 135 523 150 558 182 C 592 213 610 257 610 315 L 610 1126 L 780 1126 L 780 158 C 780 63 781 10 784 0 Z M 693 1210 L 548 1210 L 433 1370 L 316 1210 L 173 1210 L 339 1473 L 529 1473 L 693 1210 Z" unicode="û" />
<glyph horiz-adv-x="866" d="M 784 0 L 625 0 L 618 106 C 600 69 568 40 520 19 C 472 -1 421 -12 365 -12 C 278 -12 210 12 161 60 C 112 108 88 177 88 266 L 88 1016 L 86 1126 L 254 1126 L 256 1020 L 256 305 C 256 191 310 135 418 135 C 476 135 523 150 558 182 C 592 213 610 257 610 315 L 610 1126 L 780 1126 L 780 158 C 780 63 781 10 784 0 Z M 656 1206 L 501 1206 L 501 1423 L 656 1423 L 656 1206 Z M 366 1206 L 210 1206 L 210 1423 L 366 1423 L 366 1206 Z" unicode="ü" />
<glyph horiz-adv-x="840" d="M 831 1126 L 387 -342 L 219 -342 L 330 10 L 8 1126 L 180 1126 L 414 233 L 662 1126 L 831 1126 Z M 250 1206 L 404 1470 L 590 1470 L 412 1206 L 250 1206 Z" unicode="ý" />
<glyph horiz-adv-x="895" d="M 850 582 C 850 478 842 385 826 303 C 810 220 790 159 764 119 C 738 79 704 49 662 27 C 620 5 572 -6 518 -6 C 386 -6 300 30 258 104 L 258 -342 L 92 -342 L 92 1634 L 256 1634 L 256 999 C 272 1044 304 1080 352 1106 C 400 1132 456 1145 520 1145 C 601 1145 665 1125 711 1086 C 757 1046 792 983 815 897 C 838 810 850 705 850 582 Z M 680 571 C 680 725 664 835 633 901 C 599 955 544 983 467 983 C 392 983 338 952 305 891 C 271 807 254 700 254 571 C 254 473 257 401 264 353 C 270 305 283 262 301 223 C 334 172 389 147 467 147 C 505 147 538 153 565 165 C 592 177 613 197 629 224 C 644 250 656 296 666 360 C 675 424 680 495 680 571 Z" unicode="þ" />
<glyph horiz-adv-x="840" d="M 831 1126 L 387 -342 L 219 -342 L 330 10 L 8 1126 L 180 1126 L 414 233 L 662 1126 L 831 1126 Z M 643 1206 L 488 1206 L 488 1423 L 643 1423 L 643 1206 Z M 353 1206 L 197 1206 L 197 1423 L 353 1423 L 353 1206 Z" unicode="ÿ" />
<glyph horiz-adv-x="1030" d="M 324 975 L 324 0 L 154 0 L 154 975 L 18 975 L 18 1126 L 154 1126 L 154 1395 C 154 1476 174 1538 214 1581 C 254 1623 315 1645 395 1645 C 441 1645 491 1641 545 1634 L 545 1481 C 502 1486 466 1489 438 1489 C 360 1486 322 1450 322 1380 L 322 1124 L 635 1124 L 635 1380 C 635 1464 655 1530 697 1576 C 739 1622 798 1645 874 1645 C 920 1645 970 1641 1024 1634 L 1024 1481 C 976 1486 940 1489 918 1489 C 878 1487 848 1478 830 1462 C 812 1445 803 1419 803 1384 L 803 1124 L 1014 1124 L 1014 975 L 803 975 L 803 0 L 635 0 L 635 975 L 324 975 Z" unicode="ﬀ" />
<glyph horiz-adv-x="940" d="M 647 977 L 328 977 L 328 0 L 156 0 L 156 975 L 18 975 L 18 1126 L 156 1126 L 156 1395 C 156 1477 177 1539 220 1581 C 262 1623 324 1645 406 1645 C 451 1645 501 1641 555 1634 L 555 1483 C 509 1488 474 1491 449 1491 C 367 1491 326 1452 326 1374 L 326 1124 L 819 1124 L 819 100 C 819 73 820 50 822 31 C 824 12 827 2 829 0 L 659 0 C 651 8 647 38 647 90 L 647 977 Z" unicode="ﬁ" />
<glyph horiz-adv-x="944" d="M 18 975 L 18 1126 L 154 1126 L 154 1395 C 154 1477 174 1539 215 1581 C 256 1623 316 1645 395 1645 C 443 1645 495 1641 549 1634 L 549 1483 C 501 1488 464 1491 440 1491 C 362 1491 324 1455 324 1384 L 324 1126 L 537 1126 L 537 975 L 326 975 L 326 0 L 154 0 L 154 975 L 18 975 Z M 827 0 L 659 0 C 651 4 647 28 647 70 L 647 1530 L 643 1634 L 813 1634 C 815 1627 817 1600 817 1554 L 817 94 C 817 38 820 6 827 0 Z" unicode="ﬂ" />
<glyph horiz-adv-x="694" d="M 350 539 C 296 539 248 559 208 599 C 167 639 147 687 147 745 C 147 804 167 853 207 893 C 247 932 295 952 350 952 C 406 952 453 932 492 892 C 531 852 551 803 551 745 C 551 689 531 640 492 600 C 452 559 405 539 350 539 Z" unicode="•" />
<glyph horiz-adv-x="700" d="M 586 1241 L 113 1241 L 113 1360 L 586 1360 L 586 1241 Z" unicode="̄" />
<glyph horiz-adv-x="700" d="M 604 1438 C 604 1368 581 1311 535 1267 C 489 1223 428 1202 352 1202 C 274 1202 212 1223 166 1267 C 119 1310 96 1367 96 1438 L 229 1438 C 229 1402 239 1373 259 1351 C 279 1328 310 1317 350 1317 C 390 1317 420 1328 440 1351 C 460 1373 471 1402 471 1438 L 604 1438 Z" unicode="˘" />
<glyph horiz-adv-x="700" d="M 430 1210 L 272 1210 L 272 1421 L 430 1421 L 430 1210 Z" unicode="˙" />
<glyph horiz-adv-x="700" d="M 350 1536 C 395 1536 433 1520 463 1488 C 493 1456 508 1418 508 1374 C 508 1330 492 1291 462 1259 C 432 1226 394 1210 350 1210 C 307 1210 270 1225 239 1257 C 208 1289 193 1328 193 1374 C 193 1420 208 1458 239 1489 C 269 1520 306 1536 350 1536 Z M 350 1444 C 331 1444 315 1437 303 1423 C 291 1409 285 1392 285 1374 C 285 1355 291 1339 303 1325 C 315 1311 331 1305 350 1305 C 367 1305 382 1311 396 1325 C 409 1339 416 1355 416 1374 C 416 1391 409 1407 396 1422 C 383 1436 368 1444 350 1444 Z" unicode="˚" />
<glyph horiz-adv-x="2062" d="M 666 1124 C 666 1029 638 952 583 894 C 528 836 454 807 360 807 C 267 807 193 835 139 893 C 84 951 57 1028 57 1124 L 57 1333 C 57 1429 83 1505 137 1563 C 190 1620 265 1649 362 1649 C 457 1649 531 1620 585 1564 C 639 1508 666 1431 666 1333 L 666 1124 Z M 1106 1577 L 387 0 L 276 0 L 995 1577 L 1106 1577 Z M 2019 301 C 2019 201 1992 123 1940 67 C 1888 11 1812 -16 1712 -16 C 1620 -16 1546 12 1492 69 C 1438 125 1411 203 1411 301 L 1411 508 C 1411 604 1438 682 1492 740 C 1546 798 1620 827 1714 827 C 1777 827 1832 813 1878 786 C 1924 759 1959 721 1983 673 C 2007 625 2019 570 2019 508 L 2019 301 Z M 1352 301 C 1352 201 1325 124 1272 68 C 1219 12 1143 -16 1044 -16 C 950 -16 877 12 823 69 C 769 125 743 203 743 301 L 743 508 C 743 603 770 680 825 739 C 879 797 953 827 1047 827 C 1110 827 1165 813 1211 786 C 1257 759 1292 721 1316 673 C 1340 625 1352 570 1352 508 L 1352 301 Z M 526 1126 L 526 1341 C 526 1391 511 1432 481 1464 C 451 1495 411 1511 362 1511 C 308 1511 267 1495 239 1465 C 211 1435 197 1393 197 1341 L 197 1128 C 197 1070 212 1025 242 992 C 272 958 312 942 362 942 C 413 942 453 958 482 990 C 511 1022 526 1067 526 1126 Z M 1880 305 L 1880 518 C 1880 567 1865 608 1835 640 C 1805 672 1764 688 1714 688 C 1662 688 1621 672 1593 642 C 1564 612 1550 570 1550 518 L 1550 307 C 1550 251 1564 206 1594 172 C 1623 138 1663 121 1714 121 C 1768 121 1810 136 1838 168 C 1866 199 1880 245 1880 305 Z M 1212 305 L 1212 518 C 1212 567 1197 608 1167 640 C 1137 672 1097 688 1047 688 C 995 688 954 672 925 642 C 895 612 881 570 881 518 L 881 307 C 881 249 896 204 926 171 C 956 137 997 121 1047 121 C 1101 121 1142 136 1170 168 C 1198 200 1212 245 1212 305 Z" unicode="‰" />
<glyph horiz-adv-x="1284" d="M 1104 1055 L 1104 1427 C 1104 1481 1078 1509 1028 1509 C 1002 1509 982 1498 966 1477 C 950 1456 942 1431 942 1403 L 942 1055 L 807 1055 L 807 1436 C 807 1458 800 1476 787 1489 C 774 1502 756 1509 733 1509 C 705 1509 683 1497 666 1474 C 649 1450 641 1424 641 1395 L 641 1055 L 506 1055 L 506 1634 L 639 1634 L 639 1544 C 647 1575 665 1600 693 1618 C 721 1636 754 1645 793 1645 C 830 1645 860 1635 882 1615 C 904 1595 918 1571 926 1544 C 934 1575 952 1600 980 1618 C 1008 1636 1043 1645 1083 1645 C 1131 1645 1170 1630 1198 1601 C 1226 1572 1241 1532 1241 1481 L 1241 1055 L 1104 1055 Z M 455 1507 L 291 1507 L 290 1370 L 290 1306 L 291 1251 C 291 1196 315 1169 365 1169 L 400 1169 L 432 1171 L 432 1057 C 418 1053 377 1051 311 1051 C 265 1051 227 1064 199 1090 C 170 1116 156 1154 156 1206 L 156 1507 L 12 1507 L 12 1634 L 455 1634 L 455 1507 Z" unicode="™" />
<glyph horiz-adv-x="727" d="M 326 -174 C 326 -198 337 -221 359 -241 C 381 -261 415 -275 461 -283 L 461 -371 C 371 -356 305 -331 265 -296 C 225 -261 205 -221 205 -176 C 205 -130 222 -92 258 -62 C 293 -31 345 -10 414 0 L 444 -53 C 365 -80 326 -120 326 -174 Z" unicode="˛" />
<glyph horiz-adv-x="1664" d="M 832 1376 C 706 1376 599 1328 510 1234 C 420 1139 376 1006 376 836 C 376 673 405 538 464 432 C 522 325 609 241 724 180 L 724 0 L 88 0 L 88 196 L 536 196 C 456 225 378 295 304 406 C 229 516 192 664 192 848 C 192 1024 247 1184 358 1330 C 468 1475 626 1548 832 1548 C 1037 1548 1195 1478 1306 1338 C 1416 1198 1472 1034 1472 848 C 1472 664 1434 516 1360 406 C 1285 295 1208 225 1128 196 L 1576 196 L 1576 0 L 940 0 L 940 180 C 1054 241 1141 325 1200 432 C 1258 538 1288 673 1288 836 C 1288 974 1246 1099 1162 1210 C 1078 1320 968 1376 832 1376 Z" unicode="Ω" />
<glyph horiz-adv-x="700" d="M 251 1313 C 231 1313 218 1307 210 1296 C 202 1285 197 1261 195 1223 L 76 1223 C 79 1291 94 1344 122 1383 C 149 1422 188 1442 238 1442 C 291 1442 337 1422 375 1382 C 403 1352 429 1337 452 1337 C 470 1337 483 1341 491 1351 C 499 1360 504 1386 508 1430 L 627 1430 C 623 1359 608 1304 581 1266 C 554 1227 516 1208 467 1208 C 444 1208 421 1211 399 1217 C 377 1223 355 1238 334 1262 C 317 1278 303 1290 291 1299 C 279 1308 266 1313 251 1313 Z" unicode="˜" />
<glyph horiz-adv-x="700" d="M 371 1206 L 487 1470 L 641 1470 L 498 1206 L 371 1206 Z M 154 1206 L 272 1470 L 424 1470 L 283 1206 L 154 1206 Z" unicode="˝" />
<glyph horiz-adv-x="358" d="M 274 0 L 106 0 C 104 1 101 9 98 25 C 95 40 94 62 94 90 L 94 1126 L 264 1126 L 264 100 C 264 71 265 48 268 30 C 270 12 272 2 274 0 Z" unicode="ı" />
<glyph horiz-adv-x="862" d="M 301 623 L 301 174 L 838 174 L 838 0 L 117 0 L 117 553 L 41 522 L 41 655 L 117 686 L 117 1628 L 301 1628 L 301 754 L 594 868 L 594 737 L 301 623 Z" unicode="Ł" />
<glyph horiz-adv-x="367" d="M 268 594 L 268 94 C 268 38 269 7 272 0 L 106 0 C 100 3 98 26 98 70 L 98 528 L 16 496 L 16 633 L 98 666 L 98 1530 C 98 1584 96 1619 94 1634 L 262 1634 C 266 1624 268 1597 268 1554 L 268 733 L 350 768 L 350 629 L 268 594 Z" unicode="ł" />
<glyph horiz-adv-x="700" d="M 610 1210 L 465 1210 L 350 1370 L 233 1210 L 90 1210 L 256 1473 L 446 1473 L 610 1210 Z" unicode="ˆ" />
<glyph horiz-adv-x="1532" d="M 780 1628 L 1495 1628 L 1495 1456 L 938 1456 L 938 905 L 1460 905 L 1460 735 L 938 735 L 938 172 L 1497 172 L 1497 0 L 778 0 L 778 66 C 751 39 715 19 671 5 C 627 -9 578 -16 526 -16 C 412 -16 320 13 248 72 C 176 131 127 220 101 338 C 75 456 63 615 63 817 C 63 1042 76 1207 102 1313 C 128 1418 176 1499 245 1556 C 313 1613 406 1642 522 1642 C 640 1642 726 1612 780 1552 L 780 1628 Z M 541 150 C 597 150 644 160 681 180 C 718 200 742 226 754 260 C 758 300 760 419 760 617 L 760 1002 C 760 1196 758 1306 756 1333 C 726 1423 654 1468 539 1468 C 428 1468 352 1426 312 1342 C 272 1258 252 1081 252 811 C 252 558 267 392 299 313 C 343 204 423 150 541 150 Z" unicode="Œ" />
<glyph horiz-adv-x="1462" d="M 745 133 C 717 83 679 45 631 21 C 583 -3 521 -16 444 -16 C 296 -16 191 42 129 158 C 78 256 53 392 53 565 C 53 765 85 912 150 1005 C 215 1098 314 1145 446 1145 C 608 1145 710 1093 754 991 C 806 1093 904 1145 1047 1145 C 1139 1145 1213 1125 1270 1085 C 1327 1045 1366 984 1387 900 C 1408 816 1419 695 1419 538 L 1419 496 L 829 496 C 829 416 837 346 855 284 C 873 222 897 181 927 160 C 957 139 999 129 1051 129 C 1108 129 1151 138 1181 157 C 1211 175 1230 200 1240 232 C 1250 263 1255 300 1255 344 L 1417 344 C 1417 280 1405 219 1382 162 C 1358 105 1320 61 1268 30 C 1215 0 1142 -16 1049 -16 C 974 -16 912 -4 862 18 C 812 41 773 79 745 133 Z M 1253 629 C 1253 767 1236 862 1203 914 C 1170 966 1117 993 1044 993 C 994 993 954 981 924 959 C 894 937 870 896 854 837 C 837 777 829 708 829 629 L 1253 629 Z M 670 563 C 670 738 653 853 619 908 C 585 963 527 991 444 991 C 366 991 309 960 274 900 C 238 839 221 727 221 563 C 221 492 226 424 236 360 C 246 295 258 248 274 220 C 290 191 312 169 341 155 C 369 140 404 133 446 133 C 483 133 516 140 544 154 C 572 168 594 188 612 216 C 629 244 643 290 654 356 C 664 421 670 490 670 563 Z" unicode="œ" />
<glyph horiz-adv-x="453" d="M 424 252 L 33 657 L 33 782 L 424 1190 L 424 977 L 172 721 L 424 467 L 424 252 Z" unicode="‹" />
<glyph horiz-adv-x="453" d="M 31 252 L 31 467 L 283 721 L 31 977 L 31 1190 L 420 782 L 420 657 L 31 252 Z" unicode="›" />
<glyph horiz-adv-x="989" d="M 934 391 C 934 258 897 157 824 88 C 751 18 644 -16 502 -16 C 244 -16 100 74 70 256 C 61 303 57 369 57 455 L 238 455 C 238 415 242 361 250 293 C 264 193 350 143 508 143 C 587 143 646 161 686 199 C 725 236 745 295 745 377 C 745 453 728 516 695 566 C 661 616 602 668 516 723 L 356 825 C 242 898 164 968 122 1036 C 80 1104 59 1184 59 1276 C 59 1388 95 1477 168 1542 C 240 1607 343 1640 475 1640 C 602 1640 700 1616 770 1568 C 839 1520 885 1443 907 1339 C 913 1309 917 1280 917 1253 C 917 1225 918 1199 918 1174 L 733 1174 L 733 1235 C 733 1319 713 1381 673 1419 C 633 1457 567 1477 477 1477 C 325 1477 250 1410 250 1276 C 250 1210 266 1154 298 1110 C 330 1065 392 1014 483 956 L 637 862 C 748 792 825 721 869 649 C 912 577 934 491 934 391 Z M 234 1887 L 377 1887 L 494 1725 L 609 1887 L 754 1887 L 588 1622 L 398 1622 L 234 1887 Z" unicode="Š" />
<glyph horiz-adv-x="815" d="M 766 305 C 766 202 735 123 675 68 C 615 13 529 -14 418 -14 C 306 -14 222 3 164 38 C 106 72 70 125 57 197 C 51 224 49 271 49 338 L 213 338 L 213 321 C 213 261 219 221 232 199 C 244 177 267 160 299 148 C 331 136 371 131 418 131 C 542 131 604 186 604 297 C 604 339 591 375 566 404 C 540 432 496 460 432 487 L 283 551 C 203 583 145 624 110 674 C 74 724 57 788 57 868 C 57 950 88 1017 150 1069 C 212 1121 293 1147 395 1147 C 485 1147 559 1129 617 1095 C 675 1061 711 1012 727 950 C 733 926 737 881 737 815 L 737 784 L 575 784 L 575 836 L 573 889 C 564 925 545 952 516 968 C 487 984 446 993 393 993 C 278 993 221 944 221 848 C 221 808 232 774 255 748 C 277 722 316 697 371 674 L 528 608 C 617 569 679 527 714 481 C 748 435 766 376 766 305 Z M 147 1477 L 290 1477 L 407 1315 L 522 1477 L 667 1477 L 501 1212 L 311 1212 L 147 1477 Z" unicode="š" />
<glyph horiz-adv-x="1152" d="M -8 -392 L 56 -260 C 96 -273 132 -280 164 -280 C 196 -280 222 -268 242 -246 C 262 -223 277 -178 288 -112 L 516 1224 C 553 1437 674 1544 880 1544 C 941 1544 995 1536 1042 1522 C 1088 1507 1125 1492 1152 1476 L 1088 1304 C 1008 1354 935 1380 868 1380 C 806 1380 760 1360 730 1322 C 699 1283 680 1238 672 1188 L 448 -224 C 434 -296 402 -348 350 -382 C 298 -415 240 -432 176 -432 C 136 -432 99 -428 66 -420 C 32 -412 8 -402 -8 -392 Z" unicode="∫" />
<glyph horiz-adv-x="700" d="M 90 1477 L 233 1477 L 350 1315 L 465 1477 L 610 1477 L 444 1212 L 254 1212 L 90 1477 Z" unicode="ˇ" />
<glyph horiz-adv-x="1020" d="M 1018 1628 L 594 578 L 594 0 L 408 0 L 408 573 L 2 1628 L 193 1628 C 400 1083 504 800 504 780 C 504 792 540 892 613 1078 C 685 1264 759 1448 834 1628 L 1018 1628 Z M 733 1616 L 578 1616 L 578 1833 L 733 1833 L 733 1616 Z M 443 1616 L 287 1616 L 287 1833 L 443 1833 L 443 1616 Z" unicode="Ÿ" />
<glyph horiz-adv-x="1415" d="M 1286 0 L 1067 0 L 1067 291 L 1286 291 L 1286 0 Z M 817 0 L 596 0 L 596 291 L 817 291 L 817 0 Z M 344 0 L 125 0 L 125 291 L 344 291 L 344 0 Z" unicode="…" />
<glyph horiz-adv-x="889" d="M 866 0 L 37 0 L 37 160 L 643 1456 L 68 1456 L 68 1628 L 848 1628 L 848 1483 L 236 172 L 866 172 L 866 0 Z M 184 1887 L 327 1887 L 444 1725 L 559 1887 L 704 1887 L 538 1622 L 348 1622 L 184 1887 Z" unicode="Ž" />
<glyph horiz-adv-x="731" d="M 702 0 L 37 0 L 37 147 L 514 975 L 45 975 L 45 1126 L 688 1126 L 688 973 L 211 150 L 702 150 L 702 0 Z M 105 1477 L 248 1477 L 365 1315 L 480 1477 L 625 1477 L 459 1212 L 269 1212 L 105 1477 Z" unicode="ž" />
<glyph horiz-adv-x="1536" d="M 212 236 L 212 452 L 1112 792 L 212 1128 L 212 1344 L 1352 872 L 1352 708 L 212 236 Z M 212 24 L 212 216 L 1348 216 L 1348 24 L 212 24 Z" unicode="≥" />
<glyph horiz-adv-x="1417" d="M 1122 977 L 803 977 L 803 0 L 635 0 L 635 977 L 324 977 L 324 0 L 154 0 L 154 975 L 18 975 L 18 1126 L 154 1126 L 154 1395 C 154 1476 174 1538 214 1581 C 254 1623 315 1645 395 1645 C 441 1645 491 1641 545 1634 L 545 1481 C 502 1486 466 1489 438 1489 C 360 1486 322 1450 322 1380 L 322 1124 L 635 1124 L 635 1380 C 635 1464 655 1530 697 1576 C 739 1622 798 1645 874 1645 C 920 1645 970 1641 1024 1634 L 1024 1481 C 976 1486 940 1489 918 1489 C 878 1487 848 1478 830 1462 C 812 1445 803 1419 803 1384 L 803 1124 L 1294 1124 L 1294 100 C 1294 73 1295 50 1299 31 C 1302 12 1305 2 1307 0 L 1139 0 C 1134 1 1130 10 1127 27 C 1123 44 1122 65 1122 90 L 1122 977 Z" unicode="ﬃ" />
<glyph horiz-adv-x="688" d="M 55 -305 C -5 -305 -52 -301 -86 -295 L -86 -150 C -70 -152 -36 -154 16 -154 C 51 -152 78 -140 98 -118 C 118 -95 129 -67 133 -33 L 227 981 L 96 981 L 96 1135 L 244 1135 L 268 1405 C 283 1567 375 1649 545 1649 C 589 1649 629 1645 664 1637 L 690 1632 L 688 1485 C 634 1490 597 1493 575 1493 C 492 1490 447 1454 440 1384 L 416 1130 L 631 1130 L 631 981 L 401 981 L 307 -55 C 300 -132 275 -193 231 -238 C 187 -282 128 -305 55 -305 Z" unicode="ƒ" />
<glyph horiz-adv-x="1536" d="M 76 0 L 652 1536 L 884 1536 L 1456 0 L 76 0 Z M 352 148 L 1164 148 L 752 1256 L 352 148 Z" unicode="Δ" />
<glyph horiz-adv-x="303" d="M 494 1628 C 377 1296 277 1019 193 799 C 117 603 22 336 -94 0 L -195 0 C -45 419 59 706 119 862 C 181 1025 272 1280 393 1628 L 494 1628 Z" unicode="⁄" />
<glyph horiz-adv-x="1664" d="M 832 1376 C 706 1376 599 1328 510 1234 C 420 1139 376 1006 376 836 C 376 673 405 538 464 432 C 522 325 609 241 724 180 L 724 0 L 88 0 L 88 196 L 536 196 C 456 225 378 295 304 406 C 229 516 192 664 192 848 C 192 1024 247 1184 358 1330 C 468 1475 626 1548 832 1548 C 1037 1548 1195 1478 1306 1338 C 1416 1198 1472 1034 1472 848 C 1472 664 1434 516 1360 406 C 1285 295 1208 225 1128 196 L 1576 196 L 1576 0 L 940 0 L 940 180 C 1054 241 1141 325 1200 432 C 1258 538 1288 673 1288 836 C 1288 974 1246 1099 1162 1210 C 1078 1320 968 1376 832 1376 Z" unicode="Ω" />
<glyph horiz-adv-x="1536" d="M 236 400 C 230 429 228 456 228 480 C 228 546 248 604 288 652 C 328 700 390 724 476 724 C 542 724 600 714 650 696 C 699 677 745 659 788 642 C 830 624 872 610 912 598 C 952 586 988 580 1020 580 C 1070 580 1106 590 1128 610 C 1149 630 1160 654 1160 684 L 1156 716 L 1300 716 C 1305 686 1308 660 1308 636 C 1308 569 1288 512 1248 464 C 1208 416 1145 392 1060 392 C 993 392 935 400 886 418 C 836 435 790 452 748 470 C 705 487 664 501 624 512 C 584 522 548 528 516 528 C 465 528 429 518 408 500 C 386 481 376 458 376 432 L 380 400 L 236 400 Z M 236 860 C 230 889 228 916 228 940 C 228 1006 248 1064 288 1112 C 328 1160 390 1184 476 1184 C 542 1184 600 1174 650 1156 C 699 1137 745 1119 788 1102 C 830 1084 872 1070 912 1058 C 952 1046 988 1040 1020 1040 C 1070 1040 1106 1050 1128 1070 C 1149 1090 1160 1114 1160 1144 L 1156 1176 L 1300 1176 C 1305 1146 1308 1120 1308 1096 C 1308 1029 1288 972 1248 924 C 1208 876 1145 852 1060 852 C 993 852 935 860 886 878 C 836 895 790 912 748 930 C 705 947 664 961 624 972 C 584 982 548 988 516 988 C 465 988 429 978 408 960 C 386 941 376 918 376 892 L 380 860 L 236 860 Z" unicode="≈" />
<glyph horiz-adv-x="1408" d="M 252 -424 C 214 -424 186 -413 168 -392 C 149 -370 140 -333 140 -280 C 140 -176 145 -49 156 100 C 166 233 172 309 172 328 L 176 356 L 176 1176 L 368 1176 L 368 320 C 368 258 395 210 450 176 C 504 141 564 124 628 124 C 716 124 792 146 858 190 C 923 234 973 297 1008 380 L 1008 1176 L 1200 1176 L 1200 308 L 1220 0 L 1056 0 L 1020 176 C 974 104 913 50 836 14 C 758 -22 670 -40 572 -40 C 537 -40 494 -31 444 -14 C 393 3 353 28 324 60 C 324 1 333 -56 352 -112 C 370 -168 380 -218 380 -264 C 380 -370 337 -424 252 -424 Z" unicode="μ" />
<glyph horiz-adv-x="1408" d="M 296 0 L 296 1028 L 12 1028 L 12 1176 L 1316 1176 L 1316 1028 L 996 1028 L 996 344 C 996 266 1011 213 1042 184 C 1072 154 1109 140 1152 140 C 1184 140 1210 140 1232 142 C 1253 143 1274 148 1296 156 L 1296 28 C 1264 12 1234 0 1206 -6 C 1178 -12 1138 -16 1088 -16 C 1002 -16 935 10 886 64 C 836 117 812 208 812 336 L 812 1028 L 484 1028 L 484 0 L 296 0 Z" unicode="π" />
<glyph horiz-adv-x="1536" d="M 212 976 L 212 1176 L 900 1176 L 996 1356 L 1168 1356 L 1072 1176 L 1328 1176 L 1328 976 L 966 976 L 768 604 L 1328 604 L 1328 404 L 662 404 L 548 188 L 372 188 L 487 404 L 212 404 L 212 604 L 594 604 L 793 976 L 212 976 Z" unicode="≠" />
<glyph horiz-adv-x="1152" d="M 472 -48 L 68 756 L 472 1560 L 656 1560 L 1084 756 L 656 -48 L 472 -48 Z M 556 152 L 876 768 L 572 1356 L 252 740 L 556 152 Z" unicode="◊" />
<glyph horiz-adv-x="1536" d="M 1348 236 L 208 708 L 208 872 L 1348 1344 L 1348 1128 L 448 792 L 1348 452 L 1348 236 Z M 212 24 L 212 216 L 1348 216 L 1348 24 L 212 24 Z" unicode="≤" />
<glyph horiz-adv-x="567" d="M 541 924 L 371 924 L 371 -10 L 283 -201 L 199 -10 L 199 924 L 27 924 L 27 1077 L 199 1077 L 198 1126 L 198 1200 L 207 1626 L 362 1626 C 368 1432 371 1290 373 1200 L 371 1077 L 541 1077 L 541 924 Z" unicode="†" />
<glyph horiz-adv-x="1421" d="M 324 975 L 324 0 L 154 0 L 154 975 L 18 975 L 18 1126 L 154 1126 L 154 1395 C 154 1476 174 1538 214 1581 C 254 1623 315 1645 395 1645 C 441 1645 491 1641 545 1634 L 545 1481 C 502 1486 466 1489 438 1489 C 360 1486 322 1450 322 1380 L 322 1124 L 635 1124 L 635 1380 C 635 1464 655 1530 697 1576 C 739 1622 798 1645 874 1645 C 928 1645 979 1641 1028 1634 L 1028 1481 C 998 1486 961 1489 918 1489 C 878 1487 848 1478 830 1462 C 812 1445 803 1419 803 1384 L 803 1124 L 1016 1124 L 1016 975 L 803 975 L 803 0 L 635 0 L 635 975 L 324 975 Z M 1305 0 L 1137 0 C 1129 4 1126 28 1126 70 L 1126 1530 C 1126 1579 1124 1614 1120 1634 L 1290 1634 C 1292 1627 1294 1600 1294 1554 L 1294 94 C 1294 37 1297 6 1305 0 Z" unicode="ﬄ" />
<glyph horiz-adv-x="862" d="M 264 659 L 219 600 C 211 588 202 583 194 583 C 184 583 175 587 167 597 C 159 607 155 617 155 629 C 155 643 162 652 178 655 C 191 657 216 663 252 674 C 215 714 197 764 197 823 C 197 879 215 929 252 973 L 188 987 C 172 989 164 997 164 1013 C 164 1023 167 1034 175 1044 C 183 1054 192 1059 203 1059 C 212 1059 221 1053 229 1042 L 268 991 C 305 1027 348 1048 397 1055 L 397 1483 L 10 1483 L 10 1628 L 852 1628 L 852 1483 L 461 1483 L 461 1055 C 509 1048 552 1027 588 993 C 608 1016 622 1035 631 1049 C 639 1060 647 1066 656 1066 C 666 1066 675 1061 683 1051 C 691 1041 695 1031 695 1020 C 695 1004 687 995 672 993 C 654 991 630 985 602 977 C 642 933 662 881 662 823 C 662 769 644 720 608 676 L 674 662 C 689 659 697 650 697 635 C 697 623 692 612 684 603 C 676 593 667 589 658 589 C 649 589 641 594 633 606 L 594 657 C 555 621 510 600 459 594 L 459 168 L 852 168 L 852 10 L 10 10 L 10 168 L 397 168 L 395 594 C 343 602 299 623 264 659 Z M 461 997 L 461 901 L 428 831 L 399 901 L 399 997 C 357 989 323 968 295 935 C 267 902 254 865 254 823 C 254 781 267 743 295 711 C 322 679 356 659 397 651 L 397 748 L 428 815 L 459 748 L 459 651 C 500 659 535 679 563 711 C 591 743 606 780 606 823 C 606 865 592 903 564 936 C 536 968 502 989 461 997 Z" unicode="" />
</font>
</defs>
</svg>
